<?xml version="1.0" encoding="UTF-8" standalone="no"?>
<svg xmlns="http://www.w3.org/2000/svg" xmlns:xlink="http://www.w3.org/1999/xlink" contentStyleType="text/css" height="806px" preserveAspectRatio="none" style="width:1309px;height:806px;background:#FFFFFF;" version="1.1" viewBox="0 0 1309 806" width="1309px" zoomAndPan="magnify"><defs/><g><text fill="#000000" font-family="sans-serif" font-size="14" font-weight="bold" lengthAdjust="spacing" textLength="172" x="561.5" y="22.9951">Diagramme de classe</text><!--cluster Function--><g id="cluster_Function"><path d="M8.5,43.2969 L80.5,43.2969 A3.75,3.75 0 0 1 83,45.7969 L90,65.5938 L1155.5,65.5938 A2.5,2.5 0 0 1 1158,68.0938 L1158,796.7969 A2.5,2.5 0 0 1 1155.5,799.2969 L8.5,799.2969 A2.5,2.5 0 0 1 6,796.7969 L6,45.7969 A2.5,2.5 0 0 1 8.5,43.2969 " fill="none" style="stroke:#000000;stroke-width:1.5;"/><line style="stroke:#000000;stroke-width:1.5;" x1="6" x2="90" y1="65.5938" y2="65.5938"/><text fill="#000000" font-family="sans-serif" font-size="14" font-weight="bold" lengthAdjust="spacing" textLength="71" x="10" y="58.292">Function</text><text fill="#000000" font-family="sans-serif" font-size="14" font-style="italic" lengthAdjust="spacing" textLength="86" x="543" y="80.5889">«Functions»</text></g><!--class Detect--><g id="elem_Detect"><rect codeLine="8" fill="#F1F1F1" height="96.8906" id="Detect" rx="2.5" ry="2.5" style="stroke:#181818;stroke-width:0.5;" width="211" x="536.5" y="333.2969"/><ellipse cx="612.25" cy="349.2969" fill="#ADD1B2" rx="11" ry="11" style="stroke:#181818;stroke-width:1.0;"/><path d="M614.5938,344.9688 C613.6563,344.5313 613.0625,344.3906 612.1875,344.3906 C609.5625,344.3906 607.5625,346.4688 607.5625,349.1875 L607.5625,350.3125 C607.5625,352.8906 609.6719,354.7813 612.5625,354.7813 C613.7813,354.7813 614.9375,354.4844 615.6875,353.9375 C616.2656,353.5313 616.5938,353.0781 616.5938,352.6875 C616.5938,352.2344 616.2031,351.8438 615.7344,351.8438 C615.5156,351.8438 615.3125,351.9219 615.125,352.1094 C614.6719,352.5938 614.6719,352.5938 614.4844,352.6875 C614.0625,352.9531 613.375,353.0781 612.6094,353.0781 C610.5625,353.0781 609.2656,351.9844 609.2656,350.2813 L609.2656,349.1875 C609.2656,347.4063 610.5156,346.0938 612.25,346.0938 C612.8281,346.0938 613.4375,346.25 613.9063,346.5 C614.3906,346.7813 614.5625,347 614.6563,347.4063 C614.7188,347.8125 614.75,347.9375 614.8906,348.0625 C615.0313,348.2031 615.2656,348.3125 615.4844,348.3125 C615.75,348.3125 616.0156,348.1719 616.1875,347.9531 C616.2969,347.7969 616.3281,347.6094 616.3281,347.1875 L616.3281,345.7656 C616.3281,345.3281 616.3125,345.2031 616.2188,345.0469 C616.0625,344.7813 615.7813,344.6406 615.4844,344.6406 C615.1875,344.6406 614.9844,344.7344 614.7656,345.0469 L614.5938,344.9688 Z " fill="#000000"/><text fill="#000000" font-family="sans-serif" font-size="14" lengthAdjust="spacing" textLength="51" x="632.75" y="354.1436">Detect</text><line style="stroke:#181818;stroke-width:0.5;" x1="537.5" x2="746.5" y1="365.2969" y2="365.2969"/><text fill="#000000" font-family="sans-serif" font-size="14" lengthAdjust="spacing" textLength="199" x="542.5" y="382.292">Fonction principale du code</text><line style="stroke:#181818;stroke-width:0.5;" x1="537.5" x2="746.5" y1="389.5938" y2="389.5938"/><ellipse cx="547.5" cy="403.2422" fill="#84BE84" rx="3" ry="3" style="stroke:#038048;stroke-width:1.0;"/><text fill="#000000" font-family="sans-serif" font-size="14" lengthAdjust="spacing" textLength="45" x="556.5" y="406.5889">main()</text><ellipse cx="547.5" cy="419.5391" fill="#84BE84" rx="3" ry="3" style="stroke:#038048;stroke-width:1.0;"/><text fill="#000000" font-family="sans-serif" font-size="14" lengthAdjust="spacing" textLength="59" x="556.5" y="422.8857">detect()</text></g><!--class TrackedObjects--><g id="elem_TrackedObjects"><rect codeLine="14" fill="#F1F1F1" height="276.1563" id="TrackedObjects" rx="2.5" ry="2.5" style="stroke:#181818;stroke-width:0.5;" width="339" x="481.5" y="507.2969"/><ellipse cx="589.75" cy="523.2969" fill="#ADD1B2" rx="11" ry="11" style="stroke:#181818;stroke-width:1.0;"/><path d="M592.0938,518.9688 C591.1563,518.5313 590.5625,518.3906 589.6875,518.3906 C587.0625,518.3906 585.0625,520.4688 585.0625,523.1875 L585.0625,524.3125 C585.0625,526.8906 587.1719,528.7813 590.0625,528.7813 C591.2813,528.7813 592.4375,528.4844 593.1875,527.9375 C593.7656,527.5313 594.0938,527.0781 594.0938,526.6875 C594.0938,526.2344 593.7031,525.8438 593.2344,525.8438 C593.0156,525.8438 592.8125,525.9219 592.625,526.1094 C592.1719,526.5938 592.1719,526.5938 591.9844,526.6875 C591.5625,526.9531 590.875,527.0781 590.1094,527.0781 C588.0625,527.0781 586.7656,525.9844 586.7656,524.2813 L586.7656,523.1875 C586.7656,521.4063 588.0156,520.0938 589.75,520.0938 C590.3281,520.0938 590.9375,520.25 591.4063,520.5 C591.8906,520.7813 592.0625,521 592.1563,521.4063 C592.2188,521.8125 592.25,521.9375 592.3906,522.0625 C592.5313,522.2031 592.7656,522.3125 592.9844,522.3125 C593.25,522.3125 593.5156,522.1719 593.6875,521.9531 C593.7969,521.7969 593.8281,521.6094 593.8281,521.1875 L593.8281,519.7656 C593.8281,519.3281 593.8125,519.2031 593.7188,519.0469 C593.5625,518.7813 593.2813,518.6406 592.9844,518.6406 C592.6875,518.6406 592.4844,518.7344 592.2656,519.0469 L592.0938,518.9688 Z " fill="#000000"/><text fill="#000000" font-family="sans-serif" font-size="14" lengthAdjust="spacing" textLength="114" x="610.25" y="528.1436">TrackedObjects</text><line style="stroke:#181818;stroke-width:0.5;" x1="482.5" x2="819.5" y1="539.2969" y2="539.2969"/><text fill="#000000" font-family="sans-serif" font-size="14" lengthAdjust="spacing" textLength="230" x="501.5" y="556.292">Permet de gérer les objets pour</text><text fill="#000000" font-family="sans-serif" font-size="14" lengthAdjust="spacing" textLength="313" x="501.5" y="572.5889">les enregistrer et y accéder plus facilement</text><ellipse cx="492.5" cy="585.5391" fill="none" rx="3" ry="3" style="stroke:#038048;stroke-width:1.0;"/><text fill="#000000" font-family="sans-serif" font-size="14" lengthAdjust="spacing" textLength="37" x="501.5" y="588.8857">int id</text><ellipse cx="492.5" cy="601.8359" fill="none" rx="3" ry="3" style="stroke:#038048;stroke-width:1.0;"/><text fill="#000000" font-family="sans-serif" font-size="14" lengthAdjust="spacing" textLength="55" x="501.5" y="605.1826">float x1</text><ellipse cx="492.5" cy="618.1328" fill="none" rx="3" ry="3" style="stroke:#038048;stroke-width:1.0;"/><text fill="#000000" font-family="sans-serif" font-size="14" lengthAdjust="spacing" textLength="55" x="501.5" y="621.4795">float y1</text><ellipse cx="492.5" cy="634.4297" fill="none" rx="3" ry="3" style="stroke:#038048;stroke-width:1.0;"/><text fill="#000000" font-family="sans-serif" font-size="14" lengthAdjust="spacing" textLength="54" x="501.5" y="637.7764">float x2</text><ellipse cx="492.5" cy="650.7266" fill="none" rx="3" ry="3" style="stroke:#038048;stroke-width:1.0;"/><text fill="#000000" font-family="sans-serif" font-size="14" lengthAdjust="spacing" textLength="54" x="501.5" y="654.0732">float y2</text><ellipse cx="492.5" cy="667.0234" fill="none" rx="3" ry="3" style="stroke:#038048;stroke-width:1.0;"/><text fill="#000000" font-family="sans-serif" font-size="14" lengthAdjust="spacing" textLength="118" x="501.5" y="670.3701">float confidence</text><ellipse cx="492.5" cy="683.3203" fill="none" rx="3" ry="3" style="stroke:#038048;stroke-width:1.0;"/><text fill="#000000" font-family="sans-serif" font-size="14" lengthAdjust="spacing" textLength="67" x="501.5" y="686.667">str classe</text><ellipse cx="492.5" cy="699.6172" fill="none" rx="3" ry="3" style="stroke:#038048;stroke-width:1.0;"/><text fill="#000000" font-family="sans-serif" font-size="14" lengthAdjust="spacing" textLength="89" x="501.5" y="702.9639">str direction</text><ellipse cx="492.5" cy="715.9141" fill="none" rx="3" ry="3" style="stroke:#038048;stroke-width:1.0;"/><text fill="#000000" font-family="sans-serif" font-size="14" lengthAdjust="spacing" textLength="78" x="501.5" y="719.2607">tuple color</text><line style="stroke:#181818;stroke-width:0.5;" x1="482.5" x2="819.5" y1="726.5625" y2="726.5625"/><ellipse cx="492.5" cy="740.2109" fill="#84BE84" rx="3" ry="3" style="stroke:#038048;stroke-width:1.0;"/><text fill="#000000" font-family="sans-serif" font-size="14" lengthAdjust="spacing" textLength="161" x="501.5" y="743.5576">void update_position()</text><ellipse cx="492.5" cy="756.5078" fill="#84BE84" rx="3" ry="3" style="stroke:#038048;stroke-width:1.0;"/><text fill="#000000" font-family="sans-serif" font-size="14" lengthAdjust="spacing" textLength="180" x="501.5" y="759.8545">void calculate_direction()</text><ellipse cx="492.5" cy="772.8047" fill="#84BE84" rx="3" ry="3" style="stroke:#038048;stroke-width:1.0;"/><text fill="#000000" font-family="sans-serif" font-size="14" lengthAdjust="spacing" textLength="139" x="501.5" y="776.1514">void set_direction()</text></g><!--class CSV_manipulation--><g id="elem_CSV_manipulation"><rect codeLine="31" fill="#F1F1F1" height="80.5938" id="CSV_manipulation" rx="2.5" ry="2.5" style="stroke:#181818;stroke-width:0.5;" width="162" x="980" y="604.7969"/><ellipse cx="995" cy="620.7969" fill="#ADD1B2" rx="11" ry="11" style="stroke:#181818;stroke-width:1.0;"/><path d="M997.3438,616.4688 C996.4063,616.0313 995.8125,615.8906 994.9375,615.8906 C992.3125,615.8906 990.3125,617.9688 990.3125,620.6875 L990.3125,621.8125 C990.3125,624.3906 992.4219,626.2813 995.3125,626.2813 C996.5313,626.2813 997.6875,625.9844 998.4375,625.4375 C999.0156,625.0313 999.3438,624.5781 999.3438,624.1875 C999.3438,623.7344 998.9531,623.3438 998.4844,623.3438 C998.2656,623.3438 998.0625,623.4219 997.875,623.6094 C997.4219,624.0938 997.4219,624.0938 997.2344,624.1875 C996.8125,624.4531 996.125,624.5781 995.3594,624.5781 C993.3125,624.5781 992.0156,623.4844 992.0156,621.7813 L992.0156,620.6875 C992.0156,618.9063 993.2656,617.5938 995,617.5938 C995.5781,617.5938 996.1875,617.75 996.6563,618 C997.1406,618.2813 997.3125,618.5 997.4063,618.9063 C997.4688,619.3125 997.5,619.4375 997.6406,619.5625 C997.7813,619.7031 998.0156,619.8125 998.2344,619.8125 C998.5,619.8125 998.7656,619.6719 998.9375,619.4531 C999.0469,619.2969 999.0781,619.1094 999.0781,618.6875 L999.0781,617.2656 C999.0781,616.8281 999.0625,616.7031 998.9688,616.5469 C998.8125,616.2813 998.5313,616.1406 998.2344,616.1406 C997.9375,616.1406 997.7344,616.2344 997.5156,616.5469 L997.3438,616.4688 Z " fill="#000000"/><text fill="#000000" font-family="sans-serif" font-size="14" lengthAdjust="spacing" textLength="130" x="1009" y="625.6436">CSV_manipulation</text><line style="stroke:#181818;stroke-width:0.5;" x1="981" x2="1141" y1="636.7969" y2="636.7969"/><text fill="#000000" font-family="sans-serif" font-size="14" lengthAdjust="spacing" textLength="128" x="986" y="653.792">Crée le fichier csv</text><line style="stroke:#181818;stroke-width:0.5;" x1="981" x2="1141" y1="661.0938" y2="661.0938"/><ellipse cx="991" cy="674.7422" fill="#84BE84" rx="3" ry="3" style="stroke:#038048;stroke-width:1.0;"/><text fill="#000000" font-family="sans-serif" font-size="14" lengthAdjust="spacing" textLength="106" x="1000" y="678.0889">generate_csv()</text></g><!--class CV2_manipulations--><g id="elem_CV2_manipulations"><rect codeLine="36" fill="#F1F1F1" height="80.5938" id="CV2_manipulations" rx="2.5" ry="2.5" style="stroke:#181818;stroke-width:0.5;" width="299" x="22.5" y="604.7969"/><ellipse cx="99.75" cy="620.7969" fill="#ADD1B2" rx="11" ry="11" style="stroke:#181818;stroke-width:1.0;"/><path d="M102.0938,616.4688 C101.1563,616.0313 100.5625,615.8906 99.6875,615.8906 C97.0625,615.8906 95.0625,617.9688 95.0625,620.6875 L95.0625,621.8125 C95.0625,624.3906 97.1719,626.2813 100.0625,626.2813 C101.2813,626.2813 102.4375,625.9844 103.1875,625.4375 C103.7656,625.0313 104.0938,624.5781 104.0938,624.1875 C104.0938,623.7344 103.7031,623.3438 103.2344,623.3438 C103.0156,623.3438 102.8125,623.4219 102.625,623.6094 C102.1719,624.0938 102.1719,624.0938 101.9844,624.1875 C101.5625,624.4531 100.875,624.5781 100.1094,624.5781 C98.0625,624.5781 96.7656,623.4844 96.7656,621.7813 L96.7656,620.6875 C96.7656,618.9063 98.0156,617.5938 99.75,617.5938 C100.3281,617.5938 100.9375,617.75 101.4063,618 C101.8906,618.2813 102.0625,618.5 102.1563,618.9063 C102.2188,619.3125 102.25,619.4375 102.3906,619.5625 C102.5313,619.7031 102.7656,619.8125 102.9844,619.8125 C103.25,619.8125 103.5156,619.6719 103.6875,619.4531 C103.7969,619.2969 103.8281,619.1094 103.8281,618.6875 L103.8281,617.2656 C103.8281,616.8281 103.8125,616.7031 103.7188,616.5469 C103.5625,616.2813 103.2813,616.1406 102.9844,616.1406 C102.6875,616.1406 102.4844,616.2344 102.2656,616.5469 L102.0938,616.4688 Z " fill="#000000"/><text fill="#000000" font-family="sans-serif" font-size="14" lengthAdjust="spacing" textLength="136" x="120.25" y="625.6436">CV2_manipulations</text><line style="stroke:#181818;stroke-width:0.5;" x1="23.5" x2="320.5" y1="636.7969" y2="636.7969"/><text fill="#000000" font-family="sans-serif" font-size="14" lengthAdjust="spacing" textLength="287" x="28.5" y="653.792">Affiche les images et les objets détecté</text><line style="stroke:#181818;stroke-width:0.5;" x1="23.5" x2="320.5" y1="661.0938" y2="661.0938"/><ellipse cx="33.5" cy="674.7422" fill="#84BE84" rx="3" ry="3" style="stroke:#038048;stroke-width:1.0;"/><text fill="#000000" font-family="sans-serif" font-size="14" lengthAdjust="spacing" textLength="168" x="42.5" y="678.0889">draw_bounding_boxes()</text></g><!--class Utils--><g id="elem_Utils"><rect codeLine="41" fill="#F1F1F1" height="80.5938" id="Utils" rx="2.5" ry="2.5" style="stroke:#181818;stroke-width:0.5;" width="261" x="350.5" y="134.7969"/><ellipse cx="461.25" cy="150.7969" fill="#ADD1B2" rx="11" ry="11" style="stroke:#181818;stroke-width:1.0;"/><path d="M463.5938,146.4688 C462.6563,146.0313 462.0625,145.8906 461.1875,145.8906 C458.5625,145.8906 456.5625,147.9688 456.5625,150.6875 L456.5625,151.8125 C456.5625,154.3906 458.6719,156.2813 461.5625,156.2813 C462.7813,156.2813 463.9375,155.9844 464.6875,155.4375 C465.2656,155.0313 465.5938,154.5781 465.5938,154.1875 C465.5938,153.7344 465.2031,153.3438 464.7344,153.3438 C464.5156,153.3438 464.3125,153.4219 464.125,153.6094 C463.6719,154.0938 463.6719,154.0938 463.4844,154.1875 C463.0625,154.4531 462.375,154.5781 461.6094,154.5781 C459.5625,154.5781 458.2656,153.4844 458.2656,151.7813 L458.2656,150.6875 C458.2656,148.9063 459.5156,147.5938 461.25,147.5938 C461.8281,147.5938 462.4375,147.75 462.9063,148 C463.3906,148.2813 463.5625,148.5 463.6563,148.9063 C463.7188,149.3125 463.75,149.4375 463.8906,149.5625 C464.0313,149.7031 464.2656,149.8125 464.4844,149.8125 C464.75,149.8125 465.0156,149.6719 465.1875,149.4531 C465.2969,149.2969 465.3281,149.1094 465.3281,148.6875 L465.3281,147.2656 C465.3281,146.8281 465.3125,146.7031 465.2188,146.5469 C465.0625,146.2813 464.7813,146.1406 464.4844,146.1406 C464.1875,146.1406 463.9844,146.2344 463.7656,146.5469 L463.5938,146.4688 Z " fill="#000000"/><text fill="#000000" font-family="sans-serif" font-size="14" lengthAdjust="spacing" textLength="31" x="481.75" y="155.6436">Utils</text><line style="stroke:#181818;stroke-width:0.5;" x1="351.5" x2="610.5" y1="166.7969" y2="166.7969"/><text fill="#000000" font-family="sans-serif" font-size="14" lengthAdjust="spacing" textLength="249" x="356.5" y="183.792">Fonction utiles pour le programme</text><line style="stroke:#181818;stroke-width:0.5;" x1="351.5" x2="610.5" y1="191.0938" y2="191.0938"/><ellipse cx="361.5" cy="204.7422" fill="#84BE84" rx="3" ry="3" style="stroke:#038048;stroke-width:1.0;"/><text fill="#000000" font-family="sans-serif" font-size="14" lengthAdjust="spacing" textLength="140" x="370.5" y="208.0889">get_random_color()</text></g><!--class bdd_save--><g id="elem_bdd_save"><rect codeLine="46" fill="#F1F1F1" height="80.5938" id="bdd_save" rx="2.5" ry="2.5" style="stroke:#181818;stroke-width:0.5;" width="266" x="71" y="341.2969"/><ellipse cx="166.25" cy="357.2969" fill="#ADD1B2" rx="11" ry="11" style="stroke:#181818;stroke-width:1.0;"/><path d="M168.5938,352.9688 C167.6563,352.5313 167.0625,352.3906 166.1875,352.3906 C163.5625,352.3906 161.5625,354.4688 161.5625,357.1875 L161.5625,358.3125 C161.5625,360.8906 163.6719,362.7813 166.5625,362.7813 C167.7813,362.7813 168.9375,362.4844 169.6875,361.9375 C170.2656,361.5313 170.5938,361.0781 170.5938,360.6875 C170.5938,360.2344 170.2031,359.8438 169.7344,359.8438 C169.5156,359.8438 169.3125,359.9219 169.125,360.1094 C168.6719,360.5938 168.6719,360.5938 168.4844,360.6875 C168.0625,360.9531 167.375,361.0781 166.6094,361.0781 C164.5625,361.0781 163.2656,359.9844 163.2656,358.2813 L163.2656,357.1875 C163.2656,355.4063 164.5156,354.0938 166.25,354.0938 C166.8281,354.0938 167.4375,354.25 167.9063,354.5 C168.3906,354.7813 168.5625,355 168.6563,355.4063 C168.7188,355.8125 168.75,355.9375 168.8906,356.0625 C169.0313,356.2031 169.2656,356.3125 169.4844,356.3125 C169.75,356.3125 170.0156,356.1719 170.1875,355.9531 C170.2969,355.7969 170.3281,355.6094 170.3281,355.1875 L170.3281,353.7656 C170.3281,353.3281 170.3125,353.2031 170.2188,353.0469 C170.0625,352.7813 169.7813,352.6406 169.4844,352.6406 C169.1875,352.6406 168.9844,352.7344 168.7656,353.0469 L168.5938,352.9688 Z " fill="#000000"/><text fill="#000000" font-family="sans-serif" font-size="14" lengthAdjust="spacing" textLength="67" x="186.75" y="362.1436">bdd_save</text><line style="stroke:#181818;stroke-width:0.5;" x1="72" x2="336" y1="373.2969" y2="373.2969"/><text fill="#000000" font-family="sans-serif" font-size="14" lengthAdjust="spacing" textLength="254" x="77" y="390.292">Fonction permettant la sauvegarde</text><line style="stroke:#181818;stroke-width:0.5;" x1="72" x2="336" y1="397.5938" y2="397.5938"/><ellipse cx="82" cy="411.2422" fill="#84BE84" rx="3" ry="3" style="stroke:#038048;stroke-width:1.0;"/><text fill="#000000" font-family="sans-serif" font-size="14" lengthAdjust="spacing" textLength="77" x="91" y="414.5889">save_bdd()</text></g><!--class CustomFormater--><g id="elem_CustomFormater"><rect codeLine="51" fill="#F1F1F1" height="64.2969" id="CustomFormater" rx="2.5" ry="2.5" style="stroke:#181818;stroke-width:0.5;" width="154" x="988" y="143.2969"/><ellipse cx="1003" cy="159.2969" fill="#ADD1B2" rx="11" ry="11" style="stroke:#181818;stroke-width:1.0;"/><path d="M1005.3438,154.9688 C1004.4063,154.5313 1003.8125,154.3906 1002.9375,154.3906 C1000.3125,154.3906 998.3125,156.4688 998.3125,159.1875 L998.3125,160.3125 C998.3125,162.8906 1000.4219,164.7813 1003.3125,164.7813 C1004.5313,164.7813 1005.6875,164.4844 1006.4375,163.9375 C1007.0156,163.5313 1007.3438,163.0781 1007.3438,162.6875 C1007.3438,162.2344 1006.9531,161.8438 1006.4844,161.8438 C1006.2656,161.8438 1006.0625,161.9219 1005.875,162.1094 C1005.4219,162.5938 1005.4219,162.5938 1005.2344,162.6875 C1004.8125,162.9531 1004.125,163.0781 1003.3594,163.0781 C1001.3125,163.0781 1000.0156,161.9844 1000.0156,160.2813 L1000.0156,159.1875 C1000.0156,157.4063 1001.2656,156.0938 1003,156.0938 C1003.5781,156.0938 1004.1875,156.25 1004.6563,156.5 C1005.1406,156.7813 1005.3125,157 1005.4063,157.4063 C1005.4688,157.8125 1005.5,157.9375 1005.6406,158.0625 C1005.7813,158.2031 1006.0156,158.3125 1006.2344,158.3125 C1006.5,158.3125 1006.7656,158.1719 1006.9375,157.9531 C1007.0469,157.7969 1007.0781,157.6094 1007.0781,157.1875 L1007.0781,155.7656 C1007.0781,155.3281 1007.0625,155.2031 1006.9688,155.0469 C1006.8125,154.7813 1006.5313,154.6406 1006.2344,154.6406 C1005.9375,154.6406 1005.7344,154.7344 1005.5156,155.0469 L1005.3438,154.9688 Z " fill="#000000"/><text fill="#000000" font-family="sans-serif" font-size="14" lengthAdjust="spacing" textLength="122" x="1017" y="164.1436">CustomFormater</text><line style="stroke:#181818;stroke-width:0.5;" x1="989" x2="1141" y1="175.2969" y2="175.2969"/><line style="stroke:#181818;stroke-width:0.5;" x1="989" x2="1141" y1="183.2969" y2="183.2969"/><ellipse cx="999" cy="196.9453" fill="#84BE84" rx="3" ry="3" style="stroke:#038048;stroke-width:1.0;"/><text fill="#000000" font-family="sans-serif" font-size="14" lengthAdjust="spacing" textLength="60" x="1008" y="200.292">format()</text></g><!--class Sort--><g id="elem_Sort"><rect codeLine="55" fill="#F1F1F1" height="162.0781" id="Sort" rx="2.5" ry="2.5" style="stroke:#181818;stroke-width:0.5;" width="256" x="647" y="94.2969"/><ellipse cx="755.25" cy="110.2969" fill="#ADD1B2" rx="11" ry="11" style="stroke:#181818;stroke-width:1.0;"/><path d="M757.5938,105.9688 C756.6563,105.5313 756.0625,105.3906 755.1875,105.3906 C752.5625,105.3906 750.5625,107.4688 750.5625,110.1875 L750.5625,111.3125 C750.5625,113.8906 752.6719,115.7813 755.5625,115.7813 C756.7813,115.7813 757.9375,115.4844 758.6875,114.9375 C759.2656,114.5313 759.5938,114.0781 759.5938,113.6875 C759.5938,113.2344 759.2031,112.8438 758.7344,112.8438 C758.5156,112.8438 758.3125,112.9219 758.125,113.1094 C757.6719,113.5938 757.6719,113.5938 757.4844,113.6875 C757.0625,113.9531 756.375,114.0781 755.6094,114.0781 C753.5625,114.0781 752.2656,112.9844 752.2656,111.2813 L752.2656,110.1875 C752.2656,108.4063 753.5156,107.0938 755.25,107.0938 C755.8281,107.0938 756.4375,107.25 756.9063,107.5 C757.3906,107.7813 757.5625,108 757.6563,108.4063 C757.7188,108.8125 757.75,108.9375 757.8906,109.0625 C758.0313,109.2031 758.2656,109.3125 758.4844,109.3125 C758.75,109.3125 759.0156,109.1719 759.1875,108.9531 C759.2969,108.7969 759.3281,108.6094 759.3281,108.1875 L759.3281,106.7656 C759.3281,106.3281 759.3125,106.2031 759.2188,106.0469 C759.0625,105.7813 758.7813,105.6406 758.4844,105.6406 C758.1875,105.6406 757.9844,105.7344 757.7656,106.0469 L757.5938,105.9688 Z " fill="#000000"/><text fill="#000000" font-family="sans-serif" font-size="14" lengthAdjust="spacing" textLength="31" x="775.75" y="115.1436">Sort</text><line style="stroke:#181818;stroke-width:0.5;" x1="648" x2="902" y1="126.2969" y2="126.2969"/><text fill="#000000" font-family="sans-serif" font-size="14" lengthAdjust="spacing" textLength="194" x="653" y="143.292">Permet de faire le tracking</text><line style="stroke:#181818;stroke-width:0.5;" x1="648" x2="902" y1="150.5938" y2="150.5938"/><ellipse cx="658" cy="164.2422" fill="#84BE84" rx="3" ry="3" style="stroke:#038048;stroke-width:1.0;"/><text fill="#000000" font-family="sans-serif" font-size="14" lengthAdjust="spacing" textLength="80" x="667" y="167.5889">iou_batch()</text><ellipse cx="658" cy="180.5391" fill="#84BE84" rx="3" ry="3" style="stroke:#038048;stroke-width:1.0;"/><text fill="#000000" font-family="sans-serif" font-size="14" lengthAdjust="spacing" textLength="148" x="667" y="183.8857">convert_bbox_to_z()</text><ellipse cx="658" cy="196.8359" fill="#84BE84" rx="3" ry="3" style="stroke:#038048;stroke-width:1.0;"/><text fill="#000000" font-family="sans-serif" font-size="14" lengthAdjust="spacing" textLength="148" x="667" y="200.1826">convert_x_to_bbox()</text><ellipse cx="658" cy="213.1328" fill="#84BE84" rx="3" ry="3" style="stroke:#038048;stroke-width:1.0;"/><text fill="#000000" font-family="sans-serif" font-size="14" lengthAdjust="spacing" textLength="145" x="667" y="216.4795">KalmanBoxTracker()</text><ellipse cx="658" cy="229.4297" fill="#84BE84" rx="3" ry="3" style="stroke:#038048;stroke-width:1.0;"/><text fill="#000000" font-family="sans-serif" font-size="14" lengthAdjust="spacing" textLength="230" x="667" y="232.7764">associate_detections_to_track()</text><ellipse cx="658" cy="245.7266" fill="#84BE84" rx="3" ry="3" style="stroke:#038048;stroke-width:1.0;"/><text fill="#000000" font-family="sans-serif" font-size="14" lengthAdjust="spacing" textLength="41" x="667" y="249.0732">Sort()</text></g><!--class Main--><g id="elem_Main"><rect codeLine="3" fill="#F1F1F1" height="48" id="Main" rx="2.5" ry="2.5" style="stroke:#181818;stroke-width:0.5;" width="65" x="1174.5" y="357.7969"/><ellipse cx="1189.5" cy="373.7969" fill="#ADD1B2" rx="11" ry="11" style="stroke:#181818;stroke-width:1.0;"/><path d="M1191.8438,369.4688 C1190.9063,369.0313 1190.3125,368.8906 1189.4375,368.8906 C1186.8125,368.8906 1184.8125,370.9688 1184.8125,373.6875 L1184.8125,374.8125 C1184.8125,377.3906 1186.9219,379.2813 1189.8125,379.2813 C1191.0313,379.2813 1192.1875,378.9844 1192.9375,378.4375 C1193.5156,378.0313 1193.8438,377.5781 1193.8438,377.1875 C1193.8438,376.7344 1193.4531,376.3438 1192.9844,376.3438 C1192.7656,376.3438 1192.5625,376.4219 1192.375,376.6094 C1191.9219,377.0938 1191.9219,377.0938 1191.7344,377.1875 C1191.3125,377.4531 1190.625,377.5781 1189.8594,377.5781 C1187.8125,377.5781 1186.5156,376.4844 1186.5156,374.7813 L1186.5156,373.6875 C1186.5156,371.9063 1187.7656,370.5938 1189.5,370.5938 C1190.0781,370.5938 1190.6875,370.75 1191.1563,371 C1191.6406,371.2813 1191.8125,371.5 1191.9063,371.9063 C1191.9688,372.3125 1192,372.4375 1192.1406,372.5625 C1192.2813,372.7031 1192.5156,372.8125 1192.7344,372.8125 C1193,372.8125 1193.2656,372.6719 1193.4375,372.4531 C1193.5469,372.2969 1193.5781,372.1094 1193.5781,371.6875 L1193.5781,370.2656 C1193.5781,369.8281 1193.5625,369.7031 1193.4688,369.5469 C1193.3125,369.2813 1193.0313,369.1406 1192.7344,369.1406 C1192.4375,369.1406 1192.2344,369.2344 1192.0156,369.5469 L1191.8438,369.4688 Z " fill="#000000"/><text fill="#000000" font-family="sans-serif" font-size="14" lengthAdjust="spacing" textLength="33" x="1203.5" y="378.6436">Main</text><line style="stroke:#181818;stroke-width:0.5;" x1="1175.5" x2="1238.5" y1="389.7969" y2="389.7969"/><line style="stroke:#181818;stroke-width:0.5;" x1="1175.5" x2="1238.5" y1="397.7969" y2="397.7969"/></g><!--link Detect to Main--><g id="link_Detect_Main"><path codeLine="67" d="M747.609,381.7969 C871.585,381.7969 1071.61,381.7969 1161.13,381.7969 " fill="none" id="Detect-to-Main" style="stroke:#181818;stroke-width:1.0;"/><polygon fill="#181818" points="1174.27,381.7969,1168.27,377.7969,1162.27,381.7969,1168.27,385.7969,1174.27,381.7969" style="stroke:#181818;stroke-width:1.0;"/><text fill="#000000" font-family="sans-serif" font-size="13" lengthAdjust="spacing" textLength="160" x="881" y="374.8638">Passage des paramètres</text></g><!--reverse link Main to CustomFormater--><g id="link_Main_CustomFormater"><path codeLine="68" d="M1183.51,346.9749 C1156.55,308.1459 1112.69,244.9839 1086.57,207.3559 " fill="none" id="Main-backto-CustomFormater" style="stroke:#181818;stroke-width:1.0;"/><polygon fill="#181818" points="1190.97,357.7139,1190.8315,350.5041,1184.123,347.859,1184.2615,355.0688,1190.97,357.7139" style="stroke:#181818;stroke-width:1.0;"/><text fill="#000000" font-family="sans-serif" font-size="13" lengthAdjust="spacing" textLength="148" x="1153" y="299.3638">Mise en forme des logs</text></g><!--link Detect to TrackedObjects--><g id="link_Detect_TrackedObjects"><path codeLine="70" d="M546.423,430.4849 C533.402,443.5469 526.209,459.1919 532,477.2969 C533.9,483.2359 536.096,489.1449 538.541,494.9989 " fill="none" id="Detect-to-TrackedObjects" style="stroke:#181818;stroke-width:1.0;"/><polygon fill="#181818" points="543.89,506.9299,545.0853,499.8185,538.9808,495.98,537.7854,503.0914,543.89,506.9299" style="stroke:#181818;stroke-width:1.0;"/><text fill="#000000" font-family="sans-serif" font-size="13" lengthAdjust="spacing" textLength="298" x="533" y="473.3638">Enregistrement des données dans des classes</text></g><!--link Utils to Detect--><g id="link_Utils_Detect"><path codeLine="72" d="M478.545,216.0119 C478.838,242.9009 483.235,277.9979 501,303.2969 C507.896,313.1179 516.449,321.8249 525.908,329.5159 " fill="none" id="Utils-to-Detect" style="stroke:#181818;stroke-width:1.0;"/><polygon fill="#181818" points="536.492,337.4669,534.0978,330.6648,526.8982,330.2586,529.2923,337.0607,536.492,337.4669" style="stroke:#181818;stroke-width:1.0;"/><text fill="#000000" font-family="sans-serif" font-size="13" lengthAdjust="spacing" textLength="181" x="502" y="299.3638">Appel de fonctions utilitaires</text></g><!--link Sort to Detect--><g id="link_Sort_Detect"><path codeLine="73" d="M722.817,256.5339 C708.571,278.4379 693.405,301.7569 680.105,322.2069 " fill="none" id="Sort-to-Detect" style="stroke:#181818;stroke-width:1.0;"/><polygon fill="#181818" points="672.926,333.2459,679.5505,330.3971,679.4688,323.1864,672.8442,326.0352,672.926,333.2459" style="stroke:#181818;stroke-width:1.0;"/><text fill="#000000" font-family="sans-serif" font-size="13" lengthAdjust="spacing" textLength="124" x="701" y="299.3638">Tracking des objets</text></g><!--reverse link Detect to CSV_manipulation--><g id="link_Detect_CSV_manipulation"><path codeLine="74" d="M759.894,423.2009 C785.686,433.8599 812.333,446.3419 836,460.2969 C906.2,501.6899 977.373,564.0859 1020.35,604.5109 " fill="none" id="Detect-backto-CSV_manipulation" style="stroke:#181818;stroke-width:1.0;"/><polygon fill="#181818" points="747.72,418.2749,751.7819,424.2332,758.8441,422.7754,754.7822,416.8171,747.72,418.2749" style="stroke:#181818;stroke-width:1.0;"/><text fill="#000000" font-family="sans-serif" font-size="13" lengthAdjust="spacing" textLength="265" x="863" y="473.3638">Enregistrement des données dans le CSV</text></g><!--reverse link Detect to CV2_manipulations--><g id="link_Detect_CV2_manipulations"><path codeLine="75" d="M523.661,404.6839 C475.271,416.7129 419.978,434.5699 374,460.2969 C306.315,498.1699 242.691,562.7199 205.549,604.4229 " fill="none" id="Detect-backto-CV2_manipulations" style="stroke:#181818;stroke-width:1.0;"/><polygon fill="#181818" points="536.457,401.5979,529.6863,399.1165,524.7916,404.412,531.5624,406.8934,536.457,401.5979" style="stroke:#181818;stroke-width:1.0;"/><text fill="#000000" font-family="sans-serif" font-size="13" lengthAdjust="spacing" textLength="147" x="375" y="473.3638">Affichage des données</text></g><!--link bdd_save to Detect--><g id="link_bdd_save_Detect"><path codeLine="76" d="M337.198,381.7969 C396.39,381.7969 465.514,381.7969 522.957,381.7969 " fill="none" id="bdd_save-to-Detect" style="stroke:#181818;stroke-width:1.0;"/><polygon fill="#181818" points="536.157,381.7969,530.157,377.7969,524.157,381.7969,530.157,385.7969,536.157,381.7969" style="stroke:#181818;stroke-width:1.0;"/><text fill="#000000" font-family="sans-serif" font-size="13" lengthAdjust="spacing" textLength="163" x="355.25" y="374.8638">Sauvegarde des données</text></g><!--reverse link TrackedObjects to CSV_manipulation--><g id="link_TrackedObjects_CSV_manipulation"><path codeLine="78" d="M834.012,645.2969 C885.095,645.2969 938.021,645.2969 979.903,645.2969 " fill="none" id="TrackedObjects-backto-CSV_manipulation" style="stroke:#181818;stroke-width:1.0;"/><polygon fill="#181818" points="820.722,645.2969,826.722,649.2969,832.722,645.2969,826.722,641.2969,820.722,645.2969" style="stroke:#181818;stroke-width:1.0;"/><text fill="#000000" font-family="sans-serif" font-size="13" lengthAdjust="spacing" textLength="123" x="838.75" y="638.3638">Récupérer les infos</text></g><!--link CV2_manipulations to TrackedObjects--><g id="link_CV2_manipulations_TrackedObjects"><path codeLine="79" d="M321.588,645.2969 C367.98,645.2969 419.637,645.2969 468.029,645.2969 " fill="none" id="CV2_manipulations-to-TrackedObjects" style="stroke:#181818;stroke-width:1.0;"/><polygon fill="#181818" points="481.25,645.2969,475.25,641.2969,469.25,645.2969,475.25,649.2969,481.25,645.2969" style="stroke:#181818;stroke-width:1.0;"/><text fill="#000000" font-family="sans-serif" font-size="13" lengthAdjust="spacing" textLength="123" x="340" y="638.3638">Récupérer les infos</text></g><!--SRC=[ZLJBRjim4BphA_RO9l2XEHf1W3IFIn4qQDfS1PfSAMmfKk33SLhaV-hlq8zrIOfs9ENGm418xkvmDJDBBxr2k9QijQph40G2LymvhAhq7-wOrF2dUgsgdl5Vh4Mu3PfxQJISdvUbkxYWd0foBLoZH-xf1EZlrepflPMQovxHVI80Dm9J_BIZ6pvyp6kHAjFkzOZttTBLABvkVbBGZRZtQ3lqiU5ss5kqeD21eHJAw4smAIcUeRROIkTZ3XMy0EDys0lQzIeuQ1YN2ZlKFhSWjGSfyhfHXddOVNgxUvdiTcUJs6J7ZMwaGCt73wKM2hc7lP0M4ptvo8UUwE56cTp_wTP80Q4Np6FT6oTZQY4hnJXJFAWOFa1DuWxzBFA6sAk7nxfZMlOH8MgKgRsomnw9EsWaVv9457VR3DcYHXilevC5sEFP1Am8TTb464nQo8uSvA8CRzGImpwgFkn73rZsN6zCq4BgbXOxTFEhVdYftDnVWGunQnzxxwt9dYwT-zeoBKnN9tf7I803w4Q8sh4jBdoRZEOP-K8nS2niiMMsk3TMr5IwO2CuRxfROpkYouwOfqtQptCVZFKBLpUCL8iVugFxYOhHdYRK6-RvKr6PNBP5w-iDCLLxK_-U1z9fZ9R05wP8fyzcb-VAbdDgnN2Ph9J6C6eOQrC39IdsMlgdNteUJbOA6xyQvtuDzuGKNmeHvM0aml2Nfi-LP2lR9ygUChI6E-cGXXKYHxbMcTPLrMpwJrQXFrvrSnZkEC6fIXYjoR-qOEJ1U9A7Zg36Xob391EjuRBlKIN2Hy5TSfBqaNytBOaVlyxF4GcIiBE7Zsd2FElLOh3-er5IcgeMGFEXMe_pLFWj8CV2h4LnyneU3ewT5Yo9BS8iclysx7deZy-ir8rno_fyypijlrl_3m00]--></g></svg>