<?xml version="1.0" encoding="us-ascii" standalone="no"?><svg xmlns="http://www.w3.org/2000/svg" xmlns:xlink="http://www.w3.org/1999/xlink" contentStyleType="text/css" height="725px" preserveAspectRatio="none" style="width:958px;height:725px;background:#FFFFFF;" version="1.1" viewBox="0 0 958 725" width="958px" zoomAndPan="magnify"><defs/><g><text fill="#000000" font-family="sans-serif" font-size="14" font-weight="bold" lengthAdjust="spacing" textLength="172" x="386" y="22.9951">Diagramme de classe</text><!--cluster Function--><g id="cluster_Function"><path d="M8.5,43.2969 L80.5,43.2969 A3.75,3.75 0 0 1 83,45.7969 L90,65.5938 L820.5,65.5938 A2.5,2.5 0 0 1 823,68.0938 L823,715.7969 A2.5,2.5 0 0 1 820.5,718.2969 L8.5,718.2969 A2.5,2.5 0 0 1 6,715.7969 L6,45.7969 A2.5,2.5 0 0 1 8.5,43.2969 " fill="none" style="stroke:#000000;stroke-width:1.5;"/><line style="stroke:#000000;stroke-width:1.5;" x1="6" x2="90" y1="65.5938" y2="65.5938"/><text fill="#000000" font-family="sans-serif" font-size="14" font-weight="bold" lengthAdjust="spacing" textLength="71" x="10" y="58.292">Function</text><text fill="#000000" font-family="sans-serif" font-size="14" font-style="italic" lengthAdjust="spacing" textLength="86" x="375.5" y="80.5889">&#171;Functions&#187;</text></g><!--class Detect--><g id="elem_Detect"><rect codeLine="8" fill="#F1F1F1" height="113.1875" id="Detect" rx="2.5" ry="2.5" style="stroke:#181818;stroke-width:0.5;" width="225" x="383.5" y="252.2969"/><ellipse cx="466.25" cy="268.2969" fill="#ADD1B2" rx="11" ry="11" style="stroke:#181818;stroke-width:1.0;"/><path d="M468.5938,263.9688 C467.6563,263.5313 467.0625,263.3906 466.1875,263.3906 C463.5625,263.3906 461.5625,265.4688 461.5625,268.1875 L461.5625,269.3125 C461.5625,271.8906 463.6719,273.7813 466.5625,273.7813 C467.7813,273.7813 468.9375,273.4844 469.6875,272.9375 C470.2656,272.5313 470.5938,272.0781 470.5938,271.6875 C470.5938,271.2344 470.2031,270.8438 469.7344,270.8438 C469.5156,270.8438 469.3125,270.9219 469.125,271.1094 C468.6719,271.5938 468.6719,271.5938 468.4844,271.6875 C468.0625,271.9531 467.375,272.0781 466.6094,272.0781 C464.5625,272.0781 463.2656,270.9844 463.2656,269.2813 L463.2656,268.1875 C463.2656,266.4063 464.5156,265.0938 466.25,265.0938 C466.8281,265.0938 467.4375,265.25 467.9063,265.5 C468.3906,265.7813 468.5625,266 468.6563,266.4063 C468.7188,266.8125 468.75,266.9375 468.8906,267.0625 C469.0313,267.2031 469.2656,267.3125 469.4844,267.3125 C469.75,267.3125 470.0156,267.1719 470.1875,266.9531 C470.2969,266.7969 470.3281,266.6094 470.3281,266.1875 L470.3281,264.7656 C470.3281,264.3281 470.3125,264.2031 470.2188,264.0469 C470.0625,263.7813 469.7813,263.6406 469.4844,263.6406 C469.1875,263.6406 468.9844,263.7344 468.7656,264.0469 L468.5938,263.9688 Z " fill="#000000"/><text fill="#000000" font-family="sans-serif" font-size="14" lengthAdjust="spacing" textLength="51" x="486.75" y="273.1436">Detect</text><line style="stroke:#181818;stroke-width:0.5;" x1="384.5" x2="607.5" y1="284.2969" y2="284.2969"/><text fill="#000000" font-family="sans-serif" font-size="14" lengthAdjust="spacing" textLength="199" x="403.5" y="301.292">Fonction principale du code</text><rect fill="none" height="6" style="stroke:#C82930;stroke-width:1.0;" width="6" x="391.5" y="311.2422"/><text fill="#000000" font-family="sans-serif" font-size="14" lengthAdjust="spacing" textLength="39" x="403.5" y="317.5889">YOLO</text><line style="stroke:#181818;stroke-width:0.5;" x1="384.5" x2="607.5" y1="324.8906" y2="324.8906"/><ellipse cx="394.5" cy="338.5391" fill="#84BE84" rx="3" ry="3" style="stroke:#038048;stroke-width:1.0;"/><text fill="#000000" font-family="sans-serif" font-size="14" lengthAdjust="spacing" textLength="45" x="403.5" y="341.8857">main()</text><ellipse cx="394.5" cy="354.8359" fill="#84BE84" rx="3" ry="3" style="stroke:#038048;stroke-width:1.0;"/><text fill="#000000" font-family="sans-serif" font-size="14" lengthAdjust="spacing" textLength="59" x="403.5" y="358.1826">detect()</text></g><!--class TrackedObjects--><g id="elem_TrackedObjects"><rect codeLine="15" fill="#F1F1F1" height="259.8594" id="TrackedObjects" rx="2.5" ry="2.5" style="stroke:#181818;stroke-width:0.5;" width="339" x="22.5" y="442.2969"/><ellipse cx="130.75" cy="458.2969" fill="#ADD1B2" rx="11" ry="11" style="stroke:#181818;stroke-width:1.0;"/><path d="M133.0938,453.9688 C132.1563,453.5313 131.5625,453.3906 130.6875,453.3906 C128.0625,453.3906 126.0625,455.4688 126.0625,458.1875 L126.0625,459.3125 C126.0625,461.8906 128.1719,463.7813 131.0625,463.7813 C132.2813,463.7813 133.4375,463.4844 134.1875,462.9375 C134.7656,462.5313 135.0938,462.0781 135.0938,461.6875 C135.0938,461.2344 134.7031,460.8438 134.2344,460.8438 C134.0156,460.8438 133.8125,460.9219 133.625,461.1094 C133.1719,461.5938 133.1719,461.5938 132.9844,461.6875 C132.5625,461.9531 131.875,462.0781 131.1094,462.0781 C129.0625,462.0781 127.7656,460.9844 127.7656,459.2813 L127.7656,458.1875 C127.7656,456.4063 129.0156,455.0938 130.75,455.0938 C131.3281,455.0938 131.9375,455.25 132.4063,455.5 C132.8906,455.7813 133.0625,456 133.1563,456.4063 C133.2188,456.8125 133.25,456.9375 133.3906,457.0625 C133.5313,457.2031 133.7656,457.3125 133.9844,457.3125 C134.25,457.3125 134.5156,457.1719 134.6875,456.9531 C134.7969,456.7969 134.8281,456.6094 134.8281,456.1875 L134.8281,454.7656 C134.8281,454.3281 134.8125,454.2031 134.7188,454.0469 C134.5625,453.7813 134.2813,453.6406 133.9844,453.6406 C133.6875,453.6406 133.4844,453.7344 133.2656,454.0469 L133.0938,453.9688 Z " fill="#000000"/><text fill="#000000" font-family="sans-serif" font-size="14" lengthAdjust="spacing" textLength="114" x="151.25" y="463.1436">TrackedObjects</text><line style="stroke:#181818;stroke-width:0.5;" x1="23.5" x2="360.5" y1="474.2969" y2="474.2969"/><text fill="#000000" font-family="sans-serif" font-size="14" lengthAdjust="spacing" textLength="230" x="42.5" y="491.292">Permet de g&#233;rer les objets pour</text><text fill="#000000" font-family="sans-serif" font-size="14" lengthAdjust="spacing" textLength="313" x="42.5" y="507.5889">les enregistrer et y acc&#233;der plus facilement</text><ellipse cx="33.5" cy="520.5391" fill="none" rx="3" ry="3" style="stroke:#038048;stroke-width:1.0;"/><text fill="#000000" font-family="sans-serif" font-size="14" lengthAdjust="spacing" textLength="67" x="42.5" y="523.8857">int obj_id</text><ellipse cx="33.5" cy="536.8359" fill="none" rx="3" ry="3" style="stroke:#038048;stroke-width:1.0;"/><text fill="#000000" font-family="sans-serif" font-size="14" lengthAdjust="spacing" textLength="55" x="42.5" y="540.1826">float x1</text><ellipse cx="33.5" cy="553.1328" fill="none" rx="3" ry="3" style="stroke:#038048;stroke-width:1.0;"/><text fill="#000000" font-family="sans-serif" font-size="14" lengthAdjust="spacing" textLength="55" x="42.5" y="556.4795">float y1</text><ellipse cx="33.5" cy="569.4297" fill="none" rx="3" ry="3" style="stroke:#038048;stroke-width:1.0;"/><text fill="#000000" font-family="sans-serif" font-size="14" lengthAdjust="spacing" textLength="54" x="42.5" y="572.7764">float x2</text><ellipse cx="33.5" cy="585.7266" fill="none" rx="3" ry="3" style="stroke:#038048;stroke-width:1.0;"/><text fill="#000000" font-family="sans-serif" font-size="14" lengthAdjust="spacing" textLength="54" x="42.5" y="589.0732">float y2</text><ellipse cx="33.5" cy="602.0234" fill="none" rx="3" ry="3" style="stroke:#038048;stroke-width:1.0;"/><text fill="#000000" font-family="sans-serif" font-size="14" lengthAdjust="spacing" textLength="67" x="42.5" y="605.3701">str classe</text><ellipse cx="33.5" cy="618.3203" fill="none" rx="3" ry="3" style="stroke:#038048;stroke-width:1.0;"/><text fill="#000000" font-family="sans-serif" font-size="14" lengthAdjust="spacing" textLength="215" x="42.5" y="621.667">array[x1, y1, x2, y2] : positions</text><ellipse cx="33.5" cy="634.6172" fill="none" rx="3" ry="3" style="stroke:#038048;stroke-width:1.0;"/><text fill="#000000" font-family="sans-serif" font-size="14" lengthAdjust="spacing" textLength="89" x="42.5" y="637.9639">str direction</text><line style="stroke:#181818;stroke-width:0.5;" x1="23.5" x2="360.5" y1="645.2656" y2="645.2656"/><ellipse cx="33.5" cy="658.9141" fill="#84BE84" rx="3" ry="3" style="stroke:#038048;stroke-width:1.0;"/><text fill="#000000" font-family="sans-serif" font-size="14" lengthAdjust="spacing" textLength="161" x="42.5" y="662.2607">void update_position()</text><ellipse cx="33.5" cy="675.2109" fill="#84BE84" rx="3" ry="3" style="stroke:#038048;stroke-width:1.0;"/><text fill="#000000" font-family="sans-serif" font-size="14" lengthAdjust="spacing" textLength="139" x="42.5" y="678.5576">void set_direction()</text><ellipse cx="33.5" cy="691.5078" fill="#84BE84" rx="3" ry="3" style="stroke:#038048;stroke-width:1.0;"/><text fill="#000000" font-family="sans-serif" font-size="14" lengthAdjust="spacing" textLength="180" x="42.5" y="694.8545">void calculate_direction()</text></g><!--class Save_utils--><g id="elem_Save_utils"><rect codeLine="31" fill="#F1F1F1" height="96.8906" id="Save_utils" rx="2.5" ry="2.5" style="stroke:#181818;stroke-width:0.5;" width="286" x="521" y="523.7969"/><ellipse cx="624.25" cy="539.7969" fill="#ADD1B2" rx="11" ry="11" style="stroke:#181818;stroke-width:1.0;"/><path d="M626.5938,535.4688 C625.6563,535.0313 625.0625,534.8906 624.1875,534.8906 C621.5625,534.8906 619.5625,536.9688 619.5625,539.6875 L619.5625,540.8125 C619.5625,543.3906 621.6719,545.2813 624.5625,545.2813 C625.7813,545.2813 626.9375,544.9844 627.6875,544.4375 C628.2656,544.0313 628.5938,543.5781 628.5938,543.1875 C628.5938,542.7344 628.2031,542.3438 627.7344,542.3438 C627.5156,542.3438 627.3125,542.4219 627.125,542.6094 C626.6719,543.0938 626.6719,543.0938 626.4844,543.1875 C626.0625,543.4531 625.375,543.5781 624.6094,543.5781 C622.5625,543.5781 621.2656,542.4844 621.2656,540.7813 L621.2656,539.6875 C621.2656,537.9063 622.5156,536.5938 624.25,536.5938 C624.8281,536.5938 625.4375,536.75 625.9063,537 C626.3906,537.2813 626.5625,537.5 626.6563,537.9063 C626.7188,538.3125 626.75,538.4375 626.8906,538.5625 C627.0313,538.7031 627.2656,538.8125 627.4844,538.8125 C627.75,538.8125 628.0156,538.6719 628.1875,538.4531 C628.2969,538.2969 628.3281,538.1094 628.3281,537.6875 L628.3281,536.2656 C628.3281,535.8281 628.3125,535.7031 628.2188,535.5469 C628.0625,535.2813 627.7813,535.1406 627.4844,535.1406 C627.1875,535.1406 626.9844,535.2344 626.7656,535.5469 L626.5938,535.4688 Z " fill="#000000"/><text fill="#000000" font-family="sans-serif" font-size="14" lengthAdjust="spacing" textLength="71" x="644.75" y="544.6436">Save_utils</text><line style="stroke:#181818;stroke-width:0.5;" x1="522" x2="806" y1="555.7969" y2="555.7969"/><text fill="#000000" font-family="sans-serif" font-size="14" lengthAdjust="spacing" textLength="274" x="527" y="572.792">Cr&#233;e le fichier csv/ la base de donn&#233;es</text><line style="stroke:#181818;stroke-width:0.5;" x1="522" x2="806" y1="580.0938" y2="580.0938"/><ellipse cx="532" cy="593.7422" fill="#84BE84" rx="3" ry="3" style="stroke:#038048;stroke-width:1.0;"/><text fill="#000000" font-family="sans-serif" font-size="14" lengthAdjust="spacing" textLength="106" x="541" y="597.0889">generate_csv()</text><ellipse cx="532" cy="610.0391" fill="#84BE84" rx="3" ry="3" style="stroke:#038048;stroke-width:1.0;"/><text fill="#000000" font-family="sans-serif" font-size="14" lengthAdjust="spacing" textLength="77" x="541" y="613.3857">save_bdd()</text></g><!--class Utils--><g id="elem_Utils"><rect codeLine="37" fill="#F1F1F1" height="80.5938" id="Utils" rx="2.5" ry="2.5" style="stroke:#181818;stroke-width:0.5;" width="314" x="304" y="94.2969"/><ellipse cx="441.25" cy="110.2969" fill="#ADD1B2" rx="11" ry="11" style="stroke:#181818;stroke-width:1.0;"/><path d="M443.5938,105.9688 C442.6563,105.5313 442.0625,105.3906 441.1875,105.3906 C438.5625,105.3906 436.5625,107.4688 436.5625,110.1875 L436.5625,111.3125 C436.5625,113.8906 438.6719,115.7813 441.5625,115.7813 C442.7813,115.7813 443.9375,115.4844 444.6875,114.9375 C445.2656,114.5313 445.5938,114.0781 445.5938,113.6875 C445.5938,113.2344 445.2031,112.8438 444.7344,112.8438 C444.5156,112.8438 444.3125,112.9219 444.125,113.1094 C443.6719,113.5938 443.6719,113.5938 443.4844,113.6875 C443.0625,113.9531 442.375,114.0781 441.6094,114.0781 C439.5625,114.0781 438.2656,112.9844 438.2656,111.2813 L438.2656,110.1875 C438.2656,108.4063 439.5156,107.0938 441.25,107.0938 C441.8281,107.0938 442.4375,107.25 442.9063,107.5 C443.3906,107.7813 443.5625,108 443.6563,108.4063 C443.7188,108.8125 443.75,108.9375 443.8906,109.0625 C444.0313,109.2031 444.2656,109.3125 444.4844,109.3125 C444.75,109.3125 445.0156,109.1719 445.1875,108.9531 C445.2969,108.7969 445.3281,108.6094 445.3281,108.1875 L445.3281,106.7656 C445.3281,106.3281 445.3125,106.2031 445.2188,106.0469 C445.0625,105.7813 444.7813,105.6406 444.4844,105.6406 C444.1875,105.6406 443.9844,105.7344 443.7656,106.0469 L443.5938,105.9688 Z " fill="#000000"/><text fill="#000000" font-family="sans-serif" font-size="14" lengthAdjust="spacing" textLength="31" x="461.75" y="115.1436">Utils</text><line style="stroke:#181818;stroke-width:0.5;" x1="305" x2="617" y1="126.2969" y2="126.2969"/><text fill="#000000" font-family="sans-serif" font-size="14" lengthAdjust="spacing" textLength="249" x="310" y="143.292">Fonction utiles pour le programme</text><line style="stroke:#181818;stroke-width:0.5;" x1="305" x2="617" y1="150.5938" y2="150.5938"/><ellipse cx="315" cy="164.2422" fill="#84BE84" rx="3" ry="3" style="stroke:#038048;stroke-width:1.0;"/><text fill="#000000" font-family="sans-serif" font-size="14" lengthAdjust="spacing" textLength="288" x="324" y="167.5889">yolo_detections_to_norfair_detections()</text></g><!--class CustomFormater--><g id="elem_CustomFormater"><rect codeLine="43" fill="#F1F1F1" height="64.2969" id="CustomFormater" rx="2.5" ry="2.5" style="stroke:#181818;stroke-width:0.5;" width="154" x="653" y="102.7969"/><ellipse cx="668" cy="118.7969" fill="#ADD1B2" rx="11" ry="11" style="stroke:#181818;stroke-width:1.0;"/><path d="M670.3438,114.4688 C669.4063,114.0313 668.8125,113.8906 667.9375,113.8906 C665.3125,113.8906 663.3125,115.9688 663.3125,118.6875 L663.3125,119.8125 C663.3125,122.3906 665.4219,124.2813 668.3125,124.2813 C669.5313,124.2813 670.6875,123.9844 671.4375,123.4375 C672.0156,123.0313 672.3438,122.5781 672.3438,122.1875 C672.3438,121.7344 671.9531,121.3438 671.4844,121.3438 C671.2656,121.3438 671.0625,121.4219 670.875,121.6094 C670.4219,122.0938 670.4219,122.0938 670.2344,122.1875 C669.8125,122.4531 669.125,122.5781 668.3594,122.5781 C666.3125,122.5781 665.0156,121.4844 665.0156,119.7813 L665.0156,118.6875 C665.0156,116.9063 666.2656,115.5938 668,115.5938 C668.5781,115.5938 669.1875,115.75 669.6563,116 C670.1406,116.2813 670.3125,116.5 670.4063,116.9063 C670.4688,117.3125 670.5,117.4375 670.6406,117.5625 C670.7813,117.7031 671.0156,117.8125 671.2344,117.8125 C671.5,117.8125 671.7656,117.6719 671.9375,117.4531 C672.0469,117.2969 672.0781,117.1094 672.0781,116.6875 L672.0781,115.2656 C672.0781,114.8281 672.0625,114.7031 671.9688,114.5469 C671.8125,114.2813 671.5313,114.1406 671.2344,114.1406 C670.9375,114.1406 670.7344,114.2344 670.5156,114.5469 L670.3438,114.4688 Z " fill="#000000"/><text fill="#000000" font-family="sans-serif" font-size="14" lengthAdjust="spacing" textLength="122" x="682" y="123.6436">CustomFormater</text><line style="stroke:#181818;stroke-width:0.5;" x1="654" x2="806" y1="134.7969" y2="134.7969"/><line style="stroke:#181818;stroke-width:0.5;" x1="654" x2="806" y1="142.7969" y2="142.7969"/><ellipse cx="664" cy="156.4453" fill="#84BE84" rx="3" ry="3" style="stroke:#038048;stroke-width:1.0;"/><text fill="#000000" font-family="sans-serif" font-size="14" lengthAdjust="spacing" textLength="60" x="673" y="159.792">format()</text></g><!--class Main--><g id="elem_Main"><rect codeLine="3" fill="#F1F1F1" height="48" id="Main" rx="2.5" ry="2.5" style="stroke:#181818;stroke-width:0.5;" width="65" x="839.5" y="284.7969"/><ellipse cx="854.5" cy="300.7969" fill="#ADD1B2" rx="11" ry="11" style="stroke:#181818;stroke-width:1.0;"/><path d="M856.8438,296.4688 C855.9063,296.0313 855.3125,295.8906 854.4375,295.8906 C851.8125,295.8906 849.8125,297.9688 849.8125,300.6875 L849.8125,301.8125 C849.8125,304.3906 851.9219,306.2813 854.8125,306.2813 C856.0313,306.2813 857.1875,305.9844 857.9375,305.4375 C858.5156,305.0313 858.8438,304.5781 858.8438,304.1875 C858.8438,303.7344 858.4531,303.3438 857.9844,303.3438 C857.7656,303.3438 857.5625,303.4219 857.375,303.6094 C856.9219,304.0938 856.9219,304.0938 856.7344,304.1875 C856.3125,304.4531 855.625,304.5781 854.8594,304.5781 C852.8125,304.5781 851.5156,303.4844 851.5156,301.7813 L851.5156,300.6875 C851.5156,298.9063 852.7656,297.5938 854.5,297.5938 C855.0781,297.5938 855.6875,297.75 856.1563,298 C856.6406,298.2813 856.8125,298.5 856.9063,298.9063 C856.9688,299.3125 857,299.4375 857.1406,299.5625 C857.2813,299.7031 857.5156,299.8125 857.7344,299.8125 C858,299.8125 858.2656,299.6719 858.4375,299.4531 C858.5469,299.2969 858.5781,299.1094 858.5781,298.6875 L858.5781,297.2656 C858.5781,296.8281 858.5625,296.7031 858.4688,296.5469 C858.3125,296.2813 858.0313,296.1406 857.7344,296.1406 C857.4375,296.1406 857.2344,296.2344 857.0156,296.5469 L856.8438,296.4688 Z " fill="#000000"/><text fill="#000000" font-family="sans-serif" font-size="14" lengthAdjust="spacing" textLength="33" x="868.5" y="305.6436">Main</text><line style="stroke:#181818;stroke-width:0.5;" x1="840.5" x2="903.5" y1="316.7969" y2="316.7969"/><line style="stroke:#181818;stroke-width:0.5;" x1="840.5" x2="903.5" y1="324.7969" y2="324.7969"/></g><!--link Detect to Main--><g id="link_Detect_Main"><path codeLine="49" d="M608.558,308.7969 C681.403,308.7969 772.364,308.7969 826.115,308.7969 " fill="none" id="Detect-to-Main" style="stroke:#181818;stroke-width:1.0;"/><polygon fill="#181818" points="839.269,308.7969,833.269,304.7969,827.269,308.7969,833.269,312.7969,839.269,308.7969" style="stroke:#181818;stroke-width:1.0;"/><text fill="#000000" font-family="sans-serif" font-size="13" lengthAdjust="spacing" textLength="160" x="644" y="301.8638">Passage des param&#232;tres</text></g><!--reverse link Main to CustomFormater--><g id="link_Main_CustomFormater"><path codeLine="50" d="M844.314,274.2609 C818.64,243.1639 780.738,197.2539 755.715,166.9449 " fill="none" id="Main-backto-CustomFormater" style="stroke:#181818;stroke-width:1.0;"/><polygon fill="#181818" points="852.843,284.5929,852.1083,277.4193,845.2039,275.3384,845.9387,282.512,852.843,284.5929" style="stroke:#181818;stroke-width:1.0;"/><text fill="#000000" font-family="sans-serif" font-size="13" lengthAdjust="spacing" textLength="148" x="802" y="218.3638">Mise en forme des logs</text></g><!--link Detect to TrackedObjects--><g id="link_Detect_TrackedObjects"><path codeLine="52" d="M383.422,325.3669 C335.743,337.2729 283.008,358.2709 247,395.2969 C237.089,405.4879 228.962,417.4389 222.297,430.2329 " fill="none" id="Detect-to-TrackedObjects" style="stroke:#181818;stroke-width:1.0;"/><polygon fill="#181818" points="216.579,442.1939,222.7757,438.506,221.7548,431.3675,215.5581,435.0554,216.579,442.1939" style="stroke:#181818;stroke-width:1.0;"/><text fill="#000000" font-family="sans-serif" font-size="13" lengthAdjust="spacing" textLength="298" x="248" y="408.3638">Enregistrement des donn&#233;es dans des classes</text></g><!--link Utils to Detect--><g id="link_Utils_Detect"><path codeLine="54" d="M469.118,175.6899 C472.965,194.5979 477.672,217.7289 482.066,239.3199 " fill="none" id="Utils-to-Detect" style="stroke:#181818;stroke-width:1.0;"/><polygon fill="#181818" points="484.679,252.1609,487.4019,245.4836,482.2856,240.402,479.5626,247.0792,484.679,252.1609" style="stroke:#181818;stroke-width:1.0;"/><text fill="#000000" font-family="sans-serif" font-size="13" lengthAdjust="spacing" textLength="181" x="479" y="218.3638">Appel de fonctions utilitaires</text></g><!--reverse link Detect to Save_utils--><g id="link_Detect_Save_utils"><path codeLine="55" d="M538.933,376.6239 C568.417,422.5169 606.854,482.3469 633.293,523.4999 " fill="none" id="Detect-backto-Save_utils" style="stroke:#181818;stroke-width:1.0;"/><polygon fill="#181818" points="531.834,365.5749,531.7114,372.7849,538.3196,375.6712,538.4423,368.4612,531.834,365.5749" style="stroke:#181818;stroke-width:1.0;"/><text fill="#000000" font-family="sans-serif" font-size="13" lengthAdjust="spacing" textLength="297" x="561" y="408.3638">Enregistrement des donn&#233;es dans le CSV/BDD</text></g><!--reverse link TrackedObjects to Save_utils--><g id="link_TrackedObjects_Save_utils"><path codeLine="57" d="M374.946,572.2969 C423.287,572.2969 474.759,572.2969 520.669,572.2969 " fill="none" id="TrackedObjects-backto-Save_utils" style="stroke:#181818;stroke-width:1.0;"/><polygon fill="#181818" points="361.736,572.2969,367.736,576.2969,373.736,572.2969,367.736,568.2969,361.736,572.2969" style="stroke:#181818;stroke-width:1.0;"/><text fill="#000000" font-family="sans-serif" font-size="13" lengthAdjust="spacing" textLength="123" x="379.75" y="565.3638">R&#233;cup&#233;rer les infos</text></g><!--SRC=[ZLF1Rjim3BtxAtZSsWP5UmoA0blId5QaMBS1mr0OYaIxscH9aEGimT3_MRx3FpPAiXsdsA610Ola8n_pz1naK0XBoMh7cWP18735lCUYI6-uPrB3d-AbA2pZlrYDi6er3z9ekBaPZlxsbZ05v5vOOa0UA0FqMvaURftKN5f6VA85RWIc-Wo-hp-jq_6y8R9tx_DPf24fUZcE_k9e2nJhpKyg-fxY0Ls38UvUTmU73XHwC0GXX3MjIw2OG-smbZv433NiWN7U7GH5LhKUAiQbmWPro2j87UAOKeeSLygm0BkhQRG_YNRN9xK-8i91rHGpvzZ-n-xgWhelg8VUrqymfrszJ78UsuHqcEJBgQsH0behMC1oG0-2fPh7K8uz9nNE56zLR3ojJyHzP5iiso3L8Ep2TGSavQ2I_5cIJDnlBq4ns32Vl2ACrWJf5wvHeuiC11kuVPov4U8rrzS9pMYHo8tvpYAhTIRRCe_Q6sNAR8ieKXbCgOshc7IJxC0p4YrQ7qopCgwXpLpFU5wbU03Jatn-DbDOXLblu3ayq81eUH6NOhHAzvUyumUma_KpeKyPvd0lIHpK43bohpArBufNtZsRjVP8TJTQC_elTGtYWc3Qfqms4Otglx0y8aavXm_MeegNKlLo-gId32GGzOmjmlpMiybTlu6RxcBn-EtoutBvdt_Hgp0T-BaxyDOUlqMfA-F_0G00]--></g></svg>