<?xml version="1.0" encoding="UTF-8" standalone="no"?><svg xmlns="http://www.w3.org/2000/svg" xmlns:xlink="http://www.w3.org/1999/xlink" contentStyleType="text/css" height="1037px" preserveAspectRatio="none" style="width:963px;height:1037px;background:#FFFFFF;" version="1.1" viewBox="0 0 963 1037" width="963px" zoomAndPan="magnify"><defs/><g><text fill="#000000" font-family="sans-serif" font-size="14" font-weight="bold" lengthAdjust="spacing" textLength="149" x="400" y="25.1074">Diagramme de classe</text><!--cluster Function--><g id="cluster_Function"><path d="M8.5,45.6348 L71.5,45.6348 A3.75,3.75 0 0 1 74,48.1348 L81,70.2559 L820.5,70.2559 A2.5,2.5 0 0 1 823,72.7559 L823,1028.1348 A2.5,2.5 0 0 1 820.5,1030.6348 L8.5,1030.6348 A2.5,2.5 0 0 1 6,1028.1348 L6,48.1348 A2.5,2.5 0 0 1 8.5,45.6348 " fill="none" style="stroke:#000000;stroke-width:1.5;"/><line style="stroke:#000000;stroke-width:1.5;" x1="6" x2="81" y1="70.2559" y2="70.2559"/><text fill="#000000" font-family="sans-serif" font-size="14" font-weight="bold" lengthAdjust="spacing" textLength="62" x="10" y="62.7422">Function</text><text fill="#000000" font-family="sans-serif" font-size="14" font-style="italic" lengthAdjust="spacing" textLength="78" x="379.5" y="87.3633">«Functions»</text></g><!--class Detect--><g id="elem_Detect"><rect codeLine="9" fill="#F1F1F1" height="103.8633" id="Detect" rx="2.5" ry="2.5" style="stroke:#181818;stroke-width:0.5;" width="187" x="212.5" y="358.6348"/><ellipse cx="281.25" cy="374.6348" fill="#ADD1B2" rx="11" ry="11" style="stroke:#181818;stroke-width:1.0;"/><path d="M284.0156,370.5098 Q284.1719,370.291 284.3594,370.1816 Q284.5469,370.0723 284.7656,370.0723 Q285.1406,370.0723 285.375,370.3379 Q285.6094,370.5879 285.6094,371.1973 L285.6094,372.6504 Q285.6094,373.2598 285.375,373.5254 Q285.1406,373.791 284.7656,373.791 Q284.4219,373.791 284.2188,373.5879 Q284.0156,373.4004 283.9063,372.8848 Q283.8594,372.5254 283.6719,372.3379 Q283.3438,371.9629 282.7344,371.7441 Q282.125,371.5254 281.5,371.5254 Q280.7344,371.5254 280.0938,371.8535 Q279.4688,372.1816 278.9688,372.9316 Q278.4844,373.6816 278.4844,374.7129 L278.4844,375.8066 Q278.4844,377.041 279.375,377.8691 Q280.2656,378.6816 281.8594,378.6816 Q282.7969,378.6816 283.4531,378.4316 Q283.8438,378.2754 284.2656,377.8379 Q284.5313,377.5723 284.6719,377.4941 Q284.8281,377.416 285.0313,377.416 Q285.3594,377.416 285.6094,377.6816 Q285.875,377.9316 285.875,378.2754 Q285.875,378.6191 285.5313,379.0254 Q285.0313,379.6035 284.2344,379.9316 Q283.1563,380.3848 281.8594,380.3848 Q280.3438,380.3848 279.1406,379.7598 Q278.1563,379.2598 277.4688,378.1973 Q276.7813,377.1191 276.7813,375.8379 L276.7813,374.6816 Q276.7813,373.3535 277.3906,372.2129 Q278.0156,371.0566 279.1094,370.4473 Q280.2031,369.8223 281.4375,369.8223 Q282.1719,369.8223 282.8125,369.9941 Q283.4688,370.1504 284.0156,370.5098 Z " fill="#000000"/><text fill="#000000" font-family="sans-serif" font-size="14" lengthAdjust="spacing" textLength="41" x="301.75" y="380.4316">Detect</text><line style="stroke:#181818;stroke-width:0.5;" x1="213.5" x2="398.5" y1="390.6348" y2="390.6348"/><text fill="#000000" font-family="sans-serif" font-size="14" lengthAdjust="spacing" textLength="175" x="218.5" y="409.7422">Fonction principale du code</text><line style="stroke:#181818;stroke-width:0.5;" x1="213.5" x2="398.5" y1="417.2559" y2="417.2559"/><ellipse cx="223.5" cy="432.0664" fill="#84BE84" rx="3" ry="3" style="stroke:#038048;stroke-width:1.0;"/><text fill="#000000" font-family="sans-serif" font-size="14" lengthAdjust="spacing" textLength="40" x="232.5" y="436.3633">main()</text><ellipse cx="223.5" cy="450.6875" fill="#84BE84" rx="3" ry="3" style="stroke:#038048;stroke-width:1.0;"/><text fill="#000000" font-family="sans-serif" font-size="14" lengthAdjust="spacing" textLength="49" x="232.5" y="454.9844">detect()</text></g><!--class TrackedObjects--><g id="elem_TrackedObjects"><rect codeLine="15" fill="#F1F1F1" height="308.6953" id="TrackedObjects" rx="2.5" ry="2.5" style="stroke:#181818;stroke-width:0.5;" width="297" x="240.5" y="705.6348"/><ellipse cx="334.75" cy="721.6348" fill="#ADD1B2" rx="11" ry="11" style="stroke:#181818;stroke-width:1.0;"/><path d="M337.5156,717.5098 Q337.6719,717.291 337.8594,717.1816 Q338.0469,717.0723 338.2656,717.0723 Q338.6406,717.0723 338.875,717.3379 Q339.1094,717.5879 339.1094,718.1973 L339.1094,719.6504 Q339.1094,720.2598 338.875,720.5254 Q338.6406,720.791 338.2656,720.791 Q337.9219,720.791 337.7188,720.5879 Q337.5156,720.4004 337.4063,719.8848 Q337.3594,719.5254 337.1719,719.3379 Q336.8438,718.9629 336.2344,718.7441 Q335.625,718.5254 335,718.5254 Q334.2344,718.5254 333.5938,718.8535 Q332.9688,719.1816 332.4688,719.9316 Q331.9844,720.6816 331.9844,721.7129 L331.9844,722.8066 Q331.9844,724.041 332.875,724.8691 Q333.7656,725.6816 335.3594,725.6816 Q336.2969,725.6816 336.9531,725.4316 Q337.3438,725.2754 337.7656,724.8379 Q338.0313,724.5723 338.1719,724.4941 Q338.3281,724.416 338.5313,724.416 Q338.8594,724.416 339.1094,724.6816 Q339.375,724.9316 339.375,725.2754 Q339.375,725.6191 339.0313,726.0254 Q338.5313,726.6035 337.7344,726.9316 Q336.6563,727.3848 335.3594,727.3848 Q333.8438,727.3848 332.6406,726.7598 Q331.6563,726.2598 330.9688,725.1973 Q330.2813,724.1191 330.2813,722.8379 L330.2813,721.6816 Q330.2813,720.3535 330.8906,719.2129 Q331.5156,718.0566 332.6094,717.4473 Q333.7031,716.8223 334.9375,716.8223 Q335.6719,716.8223 336.3125,716.9941 Q336.9688,717.1504 337.5156,717.5098 Z " fill="#000000"/><text fill="#000000" font-family="sans-serif" font-size="14" lengthAdjust="spacing" textLength="100" x="355.25" y="727.4316">TrackedObjects</text><line style="stroke:#181818;stroke-width:0.5;" x1="241.5" x2="536.5" y1="737.6348" y2="737.6348"/><text fill="#000000" font-family="sans-serif" font-size="14" lengthAdjust="spacing" textLength="200" x="260.5" y="756.7422">Permet de gérer les objets pour</text><text fill="#000000" font-family="sans-serif" font-size="14" lengthAdjust="spacing" textLength="271" x="260.5" y="775.3633">les enregistrer et y accéder plus facilement</text><ellipse cx="251.5" cy="789.6875" fill="none" rx="3" ry="3" style="stroke:#038048;stroke-width:1.0;"/><text fill="#000000" font-family="sans-serif" font-size="14" lengthAdjust="spacing" textLength="30" x="260.5" y="793.9844">int id</text><ellipse cx="251.5" cy="808.3086" fill="none" rx="3" ry="3" style="stroke:#038048;stroke-width:1.0;"/><text fill="#000000" font-family="sans-serif" font-size="14" lengthAdjust="spacing" textLength="45" x="260.5" y="812.6055">float x1</text><ellipse cx="251.5" cy="826.9297" fill="none" rx="3" ry="3" style="stroke:#038048;stroke-width:1.0;"/><text fill="#000000" font-family="sans-serif" font-size="14" lengthAdjust="spacing" textLength="46" x="260.5" y="831.2266">float y1</text><ellipse cx="251.5" cy="845.5508" fill="none" rx="3" ry="3" style="stroke:#038048;stroke-width:1.0;"/><text fill="#000000" font-family="sans-serif" font-size="14" lengthAdjust="spacing" textLength="45" x="260.5" y="849.8477">float x2</text><ellipse cx="251.5" cy="864.1719" fill="none" rx="3" ry="3" style="stroke:#038048;stroke-width:1.0;"/><text fill="#000000" font-family="sans-serif" font-size="14" lengthAdjust="spacing" textLength="46" x="260.5" y="868.4688">float y2</text><ellipse cx="251.5" cy="882.793" fill="none" rx="3" ry="3" style="stroke:#038048;stroke-width:1.0;"/><text fill="#000000" font-family="sans-serif" font-size="14" lengthAdjust="spacing" textLength="100" x="260.5" y="887.0898">float confidence</text><ellipse cx="251.5" cy="901.4141" fill="none" rx="3" ry="3" style="stroke:#038048;stroke-width:1.0;"/><text fill="#000000" font-family="sans-serif" font-size="14" lengthAdjust="spacing" textLength="60" x="260.5" y="905.7109">str classe</text><ellipse cx="251.5" cy="920.0352" fill="none" rx="3" ry="3" style="stroke:#038048;stroke-width:1.0;"/><text fill="#000000" font-family="sans-serif" font-size="14" lengthAdjust="spacing" textLength="74" x="260.5" y="924.332">str direction</text><ellipse cx="251.5" cy="938.6563" fill="none" rx="3" ry="3" style="stroke:#038048;stroke-width:1.0;"/><text fill="#000000" font-family="sans-serif" font-size="14" lengthAdjust="spacing" textLength="66" x="260.5" y="942.9531">tuple color</text><line style="stroke:#181818;stroke-width:0.5;" x1="241.5" x2="536.5" y1="950.4668" y2="950.4668"/><ellipse cx="251.5" cy="965.2773" fill="#84BE84" rx="3" ry="3" style="stroke:#038048;stroke-width:1.0;"/><text fill="#000000" font-family="sans-serif" font-size="14" lengthAdjust="spacing" textLength="141" x="260.5" y="969.5742">void update_position()</text><ellipse cx="251.5" cy="983.8984" fill="#84BE84" rx="3" ry="3" style="stroke:#038048;stroke-width:1.0;"/><text fill="#000000" font-family="sans-serif" font-size="14" lengthAdjust="spacing" textLength="158" x="260.5" y="988.1953">void calculate_direction()</text><ellipse cx="251.5" cy="1002.5195" fill="#84BE84" rx="3" ry="3" style="stroke:#038048;stroke-width:1.0;"/><text fill="#000000" font-family="sans-serif" font-size="14" lengthAdjust="spacing" textLength="121" x="260.5" y="1006.8164">void set_direction()</text></g><!--class CSV_manipulation--><g id="elem_CSV_manipulation"><rect codeLine="32" fill="#F1F1F1" height="85.2422" id="CSV_manipulation" rx="2.5" ry="2.5" style="stroke:#181818;stroke-width:0.5;" width="148" x="315" y="541.6348"/><ellipse cx="330" cy="557.6348" fill="#ADD1B2" rx="11" ry="11" style="stroke:#181818;stroke-width:1.0;"/><path d="M332.7656,553.5098 Q332.9219,553.291 333.1094,553.1816 Q333.2969,553.0723 333.5156,553.0723 Q333.8906,553.0723 334.125,553.3379 Q334.3594,553.5879 334.3594,554.1973 L334.3594,555.6504 Q334.3594,556.2598 334.125,556.5254 Q333.8906,556.791 333.5156,556.791 Q333.1719,556.791 332.9688,556.5879 Q332.7656,556.4004 332.6563,555.8848 Q332.6094,555.5254 332.4219,555.3379 Q332.0938,554.9629 331.4844,554.7441 Q330.875,554.5254 330.25,554.5254 Q329.4844,554.5254 328.8438,554.8535 Q328.2188,555.1816 327.7188,555.9316 Q327.2344,556.6816 327.2344,557.7129 L327.2344,558.8066 Q327.2344,560.041 328.125,560.8691 Q329.0156,561.6816 330.6094,561.6816 Q331.5469,561.6816 332.2031,561.4316 Q332.5938,561.2754 333.0156,560.8379 Q333.2813,560.5723 333.4219,560.4941 Q333.5781,560.416 333.7813,560.416 Q334.1094,560.416 334.3594,560.6816 Q334.625,560.9316 334.625,561.2754 Q334.625,561.6191 334.2813,562.0254 Q333.7813,562.6035 332.9844,562.9316 Q331.9063,563.3848 330.6094,563.3848 Q329.0938,563.3848 327.8906,562.7598 Q326.9063,562.2598 326.2188,561.1973 Q325.5313,560.1191 325.5313,558.8379 L325.5313,557.6816 Q325.5313,556.3535 326.1406,555.2129 Q326.7656,554.0566 327.8594,553.4473 Q328.9531,552.8223 330.1875,552.8223 Q330.9219,552.8223 331.5625,552.9941 Q332.2188,553.1504 332.7656,553.5098 Z " fill="#000000"/><text fill="#000000" font-family="sans-serif" font-size="14" lengthAdjust="spacing" textLength="116" x="344" y="563.4316">CSV_manipulation</text><line style="stroke:#181818;stroke-width:0.5;" x1="316" x2="462" y1="573.6348" y2="573.6348"/><text fill="#000000" font-family="sans-serif" font-size="14" lengthAdjust="spacing" textLength="113" x="321" y="592.7422">Crée le fichier csv</text><line style="stroke:#181818;stroke-width:0.5;" x1="316" x2="462" y1="600.2559" y2="600.2559"/><ellipse cx="326" cy="615.0664" fill="#84BE84" rx="3" ry="3" style="stroke:#038048;stroke-width:1.0;"/><text fill="#000000" font-family="sans-serif" font-size="14" lengthAdjust="spacing" textLength="96" x="335" y="619.3633">generate_csv()</text></g><!--class CV2_manipulations--><g id="elem_CV2_manipulations"><rect codeLine="37" fill="#F1F1F1" height="85.2422" id="CV2_manipulations" rx="2.5" ry="2.5" style="stroke:#181818;stroke-width:0.5;" width="257" x="22.5" y="541.6348"/><ellipse cx="85.75" cy="557.6348" fill="#ADD1B2" rx="11" ry="11" style="stroke:#181818;stroke-width:1.0;"/><path d="M88.5156,553.5098 Q88.6719,553.291 88.8594,553.1816 Q89.0469,553.0723 89.2656,553.0723 Q89.6406,553.0723 89.875,553.3379 Q90.1094,553.5879 90.1094,554.1973 L90.1094,555.6504 Q90.1094,556.2598 89.875,556.5254 Q89.6406,556.791 89.2656,556.791 Q88.9219,556.791 88.7188,556.5879 Q88.5156,556.4004 88.4063,555.8848 Q88.3594,555.5254 88.1719,555.3379 Q87.8438,554.9629 87.2344,554.7441 Q86.625,554.5254 86,554.5254 Q85.2344,554.5254 84.5938,554.8535 Q83.9688,555.1816 83.4688,555.9316 Q82.9844,556.6816 82.9844,557.7129 L82.9844,558.8066 Q82.9844,560.041 83.875,560.8691 Q84.7656,561.6816 86.3594,561.6816 Q87.2969,561.6816 87.9531,561.4316 Q88.3438,561.2754 88.7656,560.8379 Q89.0313,560.5723 89.1719,560.4941 Q89.3281,560.416 89.5313,560.416 Q89.8594,560.416 90.1094,560.6816 Q90.375,560.9316 90.375,561.2754 Q90.375,561.6191 90.0313,562.0254 Q89.5313,562.6035 88.7344,562.9316 Q87.6563,563.3848 86.3594,563.3848 Q84.8438,563.3848 83.6406,562.7598 Q82.6563,562.2598 81.9688,561.1973 Q81.2813,560.1191 81.2813,558.8379 L81.2813,557.6816 Q81.2813,556.3535 81.8906,555.2129 Q82.5156,554.0566 83.6094,553.4473 Q84.7031,552.8223 85.9375,552.8223 Q86.6719,552.8223 87.3125,552.9941 Q87.9688,553.1504 88.5156,553.5098 Z " fill="#000000"/><text fill="#000000" font-family="sans-serif" font-size="14" lengthAdjust="spacing" textLength="122" x="106.25" y="563.4316">CV2_manipulations</text><line style="stroke:#181818;stroke-width:0.5;" x1="23.5" x2="278.5" y1="573.6348" y2="573.6348"/><text fill="#000000" font-family="sans-serif" font-size="14" lengthAdjust="spacing" textLength="245" x="28.5" y="592.7422">Affiche les images et les objets détecté</text><line style="stroke:#181818;stroke-width:0.5;" x1="23.5" x2="278.5" y1="600.2559" y2="600.2559"/><ellipse cx="33.5" cy="615.0664" fill="#84BE84" rx="3" ry="3" style="stroke:#038048;stroke-width:1.0;"/><text fill="#000000" font-family="sans-serif" font-size="14" lengthAdjust="spacing" textLength="152" x="42.5" y="619.3633">draw_bounding_boxes()</text></g><!--class Utils--><g id="elem_Utils"><rect codeLine="42" fill="#F1F1F1" height="85.2422" id="Utils" rx="2.5" ry="2.5" style="stroke:#181818;stroke-width:0.5;" width="228" x="131" y="148.1348"/><ellipse cx="227.75" cy="164.1348" fill="#ADD1B2" rx="11" ry="11" style="stroke:#181818;stroke-width:1.0;"/><path d="M230.5156,160.0098 Q230.6719,159.791 230.8594,159.6816 Q231.0469,159.5723 231.2656,159.5723 Q231.6406,159.5723 231.875,159.8379 Q232.1094,160.0879 232.1094,160.6973 L232.1094,162.1504 Q232.1094,162.7598 231.875,163.0254 Q231.6406,163.291 231.2656,163.291 Q230.9219,163.291 230.7188,163.0879 Q230.5156,162.9004 230.4063,162.3848 Q230.3594,162.0254 230.1719,161.8379 Q229.8438,161.4629 229.2344,161.2441 Q228.625,161.0254 228,161.0254 Q227.2344,161.0254 226.5938,161.3535 Q225.9688,161.6816 225.4688,162.4316 Q224.9844,163.1816 224.9844,164.2129 L224.9844,165.3066 Q224.9844,166.541 225.875,167.3691 Q226.7656,168.1816 228.3594,168.1816 Q229.2969,168.1816 229.9531,167.9316 Q230.3438,167.7754 230.7656,167.3379 Q231.0313,167.0723 231.1719,166.9941 Q231.3281,166.916 231.5313,166.916 Q231.8594,166.916 232.1094,167.1816 Q232.375,167.4316 232.375,167.7754 Q232.375,168.1191 232.0313,168.5254 Q231.5313,169.1035 230.7344,169.4316 Q229.6563,169.8848 228.3594,169.8848 Q226.8438,169.8848 225.6406,169.2598 Q224.6563,168.7598 223.9688,167.6973 Q223.2813,166.6191 223.2813,165.3379 L223.2813,164.1816 Q223.2813,162.8535 223.8906,161.7129 Q224.5156,160.5566 225.6094,159.9473 Q226.7031,159.3223 227.9375,159.3223 Q228.6719,159.3223 229.3125,159.4941 Q229.9688,159.6504 230.5156,160.0098 Z " fill="#000000"/><text fill="#000000" font-family="sans-serif" font-size="14" lengthAdjust="spacing" textLength="26" x="248.25" y="169.9316">Utils</text><line style="stroke:#181818;stroke-width:0.5;" x1="132" x2="358" y1="180.1348" y2="180.1348"/><text fill="#000000" font-family="sans-serif" font-size="14" lengthAdjust="spacing" textLength="216" x="137" y="199.2422">Fonction utiles pour le programme</text><line style="stroke:#181818;stroke-width:0.5;" x1="132" x2="358" y1="206.7559" y2="206.7559"/><ellipse cx="142" cy="221.5664" fill="#84BE84" rx="3" ry="3" style="stroke:#038048;stroke-width:1.0;"/><text fill="#000000" font-family="sans-serif" font-size="14" lengthAdjust="spacing" textLength="125" x="151" y="225.8633">get_random_color()</text></g><!--class CustomFormater--><g id="elem_CustomFormater"><rect codeLine="47" fill="#F1F1F1" height="66.6211" id="CustomFormater" rx="2.5" ry="2.5" style="stroke:#181818;stroke-width:0.5;" width="138" x="669" y="157.1348"/><ellipse cx="684" cy="173.1348" fill="#ADD1B2" rx="11" ry="11" style="stroke:#181818;stroke-width:1.0;"/><path d="M686.7656,169.0098 Q686.9219,168.791 687.1094,168.6816 Q687.2969,168.5723 687.5156,168.5723 Q687.8906,168.5723 688.125,168.8379 Q688.3594,169.0879 688.3594,169.6973 L688.3594,171.1504 Q688.3594,171.7598 688.125,172.0254 Q687.8906,172.291 687.5156,172.291 Q687.1719,172.291 686.9688,172.0879 Q686.7656,171.9004 686.6563,171.3848 Q686.6094,171.0254 686.4219,170.8379 Q686.0938,170.4629 685.4844,170.2441 Q684.875,170.0254 684.25,170.0254 Q683.4844,170.0254 682.8438,170.3535 Q682.2188,170.6816 681.7188,171.4316 Q681.2344,172.1816 681.2344,173.2129 L681.2344,174.3066 Q681.2344,175.541 682.125,176.3691 Q683.0156,177.1816 684.6094,177.1816 Q685.5469,177.1816 686.2031,176.9316 Q686.5938,176.7754 687.0156,176.3379 Q687.2813,176.0723 687.4219,175.9941 Q687.5781,175.916 687.7813,175.916 Q688.1094,175.916 688.3594,176.1816 Q688.625,176.4316 688.625,176.7754 Q688.625,177.1191 688.2813,177.5254 Q687.7813,178.1035 686.9844,178.4316 Q685.9063,178.8848 684.6094,178.8848 Q683.0938,178.8848 681.8906,178.2598 Q680.9063,177.7598 680.2188,176.6973 Q679.5313,175.6191 679.5313,174.3379 L679.5313,173.1816 Q679.5313,171.8535 680.1406,170.7129 Q680.7656,169.5566 681.8594,168.9473 Q682.9531,168.3223 684.1875,168.3223 Q684.9219,168.3223 685.5625,168.4941 Q686.2188,168.6504 686.7656,169.0098 Z " fill="#000000"/><text fill="#000000" font-family="sans-serif" font-size="14" lengthAdjust="spacing" textLength="106" x="698" y="178.9316">CustomFormater</text><line style="stroke:#181818;stroke-width:0.5;" x1="670" x2="806" y1="189.1348" y2="189.1348"/><line style="stroke:#181818;stroke-width:0.5;" x1="670" x2="806" y1="197.1348" y2="197.1348"/><ellipse cx="680" cy="211.9453" fill="#84BE84" rx="3" ry="3" style="stroke:#038048;stroke-width:1.0;"/><text fill="#000000" font-family="sans-serif" font-size="14" lengthAdjust="spacing" textLength="50" x="689" y="216.2422">format()</text></g><!--class Sort--><g id="elem_Sort"><rect codeLine="51" fill="#F1F1F1" height="178.3477" id="Sort" rx="2.5" ry="2.5" style="stroke:#181818;stroke-width:0.5;" width="228" x="394" y="101.6348"/><ellipse cx="490.75" cy="117.6348" fill="#ADD1B2" rx="11" ry="11" style="stroke:#181818;stroke-width:1.0;"/><path d="M493.5156,113.5098 Q493.6719,113.291 493.8594,113.1816 Q494.0469,113.0723 494.2656,113.0723 Q494.6406,113.0723 494.875,113.3379 Q495.1094,113.5879 495.1094,114.1973 L495.1094,115.6504 Q495.1094,116.2598 494.875,116.5254 Q494.6406,116.791 494.2656,116.791 Q493.9219,116.791 493.7188,116.5879 Q493.5156,116.4004 493.4063,115.8848 Q493.3594,115.5254 493.1719,115.3379 Q492.8438,114.9629 492.2344,114.7441 Q491.625,114.5254 491,114.5254 Q490.2344,114.5254 489.5938,114.8535 Q488.9688,115.1816 488.4688,115.9316 Q487.9844,116.6816 487.9844,117.7129 L487.9844,118.8066 Q487.9844,120.041 488.875,120.8691 Q489.7656,121.6816 491.3594,121.6816 Q492.2969,121.6816 492.9531,121.4316 Q493.3438,121.2754 493.7656,120.8379 Q494.0313,120.5723 494.1719,120.4941 Q494.3281,120.416 494.5313,120.416 Q494.8594,120.416 495.1094,120.6816 Q495.375,120.9316 495.375,121.2754 Q495.375,121.6191 495.0313,122.0254 Q494.5313,122.6035 493.7344,122.9316 Q492.6563,123.3848 491.3594,123.3848 Q489.8438,123.3848 488.6406,122.7598 Q487.6563,122.2598 486.9688,121.1973 Q486.2813,120.1191 486.2813,118.8379 L486.2813,117.6816 Q486.2813,116.3535 486.8906,115.2129 Q487.5156,114.0566 488.6094,113.4473 Q489.7031,112.8223 490.9375,112.8223 Q491.6719,112.8223 492.3125,112.9941 Q492.9688,113.1504 493.5156,113.5098 Z " fill="#000000"/><text fill="#000000" font-family="sans-serif" font-size="14" lengthAdjust="spacing" textLength="26" x="511.25" y="123.4316">Sort</text><line style="stroke:#181818;stroke-width:0.5;" x1="395" x2="621" y1="133.6348" y2="133.6348"/><text fill="#000000" font-family="sans-serif" font-size="14" lengthAdjust="spacing" textLength="166" x="400" y="152.7422">Permet de faire le tracking</text><line style="stroke:#181818;stroke-width:0.5;" x1="395" x2="621" y1="160.2559" y2="160.2559"/><ellipse cx="405" cy="175.0664" fill="#84BE84" rx="3" ry="3" style="stroke:#038048;stroke-width:1.0;"/><text fill="#000000" font-family="sans-serif" font-size="14" lengthAdjust="spacing" textLength="72" x="414" y="179.3633">iou_batch()</text><ellipse cx="405" cy="193.6875" fill="#84BE84" rx="3" ry="3" style="stroke:#038048;stroke-width:1.0;"/><text fill="#000000" font-family="sans-serif" font-size="14" lengthAdjust="spacing" textLength="129" x="414" y="197.9844">convert_bbox_to_z()</text><ellipse cx="405" cy="212.3086" fill="#84BE84" rx="3" ry="3" style="stroke:#038048;stroke-width:1.0;"/><text fill="#000000" font-family="sans-serif" font-size="14" lengthAdjust="spacing" textLength="129" x="414" y="216.6055">convert_x_to_bbox()</text><ellipse cx="405" cy="230.9297" fill="#84BE84" rx="3" ry="3" style="stroke:#038048;stroke-width:1.0;"/><text fill="#000000" font-family="sans-serif" font-size="14" lengthAdjust="spacing" textLength="129" x="414" y="235.2266">KalmanBoxTracker()</text><ellipse cx="405" cy="249.5508" fill="#84BE84" rx="3" ry="3" style="stroke:#038048;stroke-width:1.0;"/><text fill="#000000" font-family="sans-serif" font-size="14" lengthAdjust="spacing" textLength="202" x="414" y="253.8477">associate_detections_to_track()</text><ellipse cx="405" cy="268.1719" fill="#84BE84" rx="3" ry="3" style="stroke:#038048;stroke-width:1.0;"/><text fill="#000000" font-family="sans-serif" font-size="14" lengthAdjust="spacing" textLength="36" x="414" y="272.4688">Sort()</text></g><!--class Main--><g id="elem_Main"><rect codeLine="4" fill="#F1F1F1" height="48" id="Main" rx="2.5" ry="2.5" style="stroke:#181818;stroke-width:0.5;" width="62" x="839" y="386.6348"/><ellipse cx="854" cy="402.6348" fill="#ADD1B2" rx="11" ry="11" style="stroke:#181818;stroke-width:1.0;"/><path d="M856.7656,398.5098 Q856.9219,398.291 857.1094,398.1816 Q857.2969,398.0723 857.5156,398.0723 Q857.8906,398.0723 858.125,398.3379 Q858.3594,398.5879 858.3594,399.1973 L858.3594,400.6504 Q858.3594,401.2598 858.125,401.5254 Q857.8906,401.791 857.5156,401.791 Q857.1719,401.791 856.9688,401.5879 Q856.7656,401.4004 856.6563,400.8848 Q856.6094,400.5254 856.4219,400.3379 Q856.0938,399.9629 855.4844,399.7441 Q854.875,399.5254 854.25,399.5254 Q853.4844,399.5254 852.8438,399.8535 Q852.2188,400.1816 851.7188,400.9316 Q851.2344,401.6816 851.2344,402.7129 L851.2344,403.8066 Q851.2344,405.041 852.125,405.8691 Q853.0156,406.6816 854.6094,406.6816 Q855.5469,406.6816 856.2031,406.4316 Q856.5938,406.2754 857.0156,405.8379 Q857.2813,405.5723 857.4219,405.4941 Q857.5781,405.416 857.7813,405.416 Q858.1094,405.416 858.3594,405.6816 Q858.625,405.9316 858.625,406.2754 Q858.625,406.6191 858.2813,407.0254 Q857.7813,407.6035 856.9844,407.9316 Q855.9063,408.3848 854.6094,408.3848 Q853.0938,408.3848 851.8906,407.7598 Q850.9063,407.2598 850.2188,406.1973 Q849.5313,405.1191 849.5313,403.8379 L849.5313,402.6816 Q849.5313,401.3535 850.1406,400.2129 Q850.7656,399.0566 851.8594,398.4473 Q852.9531,397.8223 854.1875,397.8223 Q854.9219,397.8223 855.5625,397.9941 Q856.2188,398.1504 856.7656,398.5098 Z " fill="#000000"/><text fill="#000000" font-family="sans-serif" font-size="14" lengthAdjust="spacing" textLength="30" x="868" y="408.4316">Main</text><line style="stroke:#181818;stroke-width:0.5;" x1="840" x2="900" y1="418.6348" y2="418.6348"/><line style="stroke:#181818;stroke-width:0.5;" x1="840" x2="900" y1="426.6348" y2="426.6348"/></g><!--link Detect to Main--><g id="link_Detect_Main"><path codeLine="63" d="M399.77,410.6348 C522.96,410.6348 734.37,410.6348 825.77,410.6348 " fill="none" id="Detect-to-Main" style="stroke:#181818;stroke-width:1.0;"/><polygon fill="#181818" points="838.87,410.6348,832.87,406.6348,826.87,410.6348,832.87,414.6348,838.87,410.6348" style="stroke:#181818;stroke-width:1.0;"/><text fill="#000000" font-family="sans-serif" font-size="13" lengthAdjust="spacing" textLength="145" x="546.75" y="403.6631">Passage des paramètres</text></g><!--reverse link Main to CustomFormater--><g id="link_Main_CustomFormater"><path codeLine="64" d="M849.24,375.3448 C824.18,333.9648 782.36,264.8948 757.76,224.2748 " fill="none" id="Main-backto-CustomFormater" style="stroke:#181818;stroke-width:1.0;"/><polygon fill="#181818" points="855.99,386.4848,856.3045,379.2805,849.7754,376.2194,849.4609,383.4236,855.99,386.4848" style="stroke:#181818;stroke-width:1.0;"/><text fill="#000000" font-family="sans-serif" font-size="13" lengthAdjust="spacing" textLength="135" x="820" y="324.6631">Mise en forme des logs</text></g><!--link Utils to Detect--><g id="link_Utils_Detect"><path codeLine="67" d="M256.62,233.1548 C265.48,264.8348 277.86,309.0748 288,345.3248 " fill="none" id="Utils-to-Detect" style="stroke:#181818;stroke-width:1.0;"/><polygon fill="#181818" points="291.63,358.2848,293.8661,351.4291,288.3979,346.7282,286.1618,353.5839,291.63,358.2848" style="stroke:#181818;stroke-width:1.0;"/><text fill="#000000" font-family="sans-serif" font-size="13" lengthAdjust="spacing" textLength="163" x="284" y="324.6631">Appel de fonctions utilitaires</text></g><!--link Sort to Detect--><g id="link_Sort_Detect"><path codeLine="68" d="M485.18,279.7948 C477.85,297.2848 468.32,314.5648 456,328.6348 C443.48,342.9248 427.82,355.1448 411.36,365.4248 " fill="none" id="Sort-to-Detect" style="stroke:#181818;stroke-width:1.0;"/><polygon fill="#181818" points="399.87,372.2448,407.0713,372.6203,410.1877,366.1174,402.9864,365.7418,399.87,372.2448" style="stroke:#181818;stroke-width:1.0;"/><text fill="#000000" font-family="sans-serif" font-size="13" lengthAdjust="spacing" textLength="113" x="468" y="324.6631">Tracking des objets</text></g><!--reverse link Detect to CSV_manipulation--><g id="link_Detect_CSV_manipulation"><path codeLine="69" d="M274.49,475.5048 C272.28,487.8948 272.95,500.4948 279,511.6348 C287.31,526.9448 300.48,539.4948 314.86,549.5648 " fill="none" id="Detect-backto-CSV_manipulation" style="stroke:#181818;stroke-width:1.0;"/><polygon fill="#181818" points="277.73,462.7248,272.3826,467.5627,274.7917,474.3595,280.1391,469.5216,277.73,462.7248" style="stroke:#181818;stroke-width:1.0;"/><text fill="#000000" font-family="sans-serif" font-size="13" lengthAdjust="spacing" textLength="243" x="280" y="507.6631">Enregistrement des données dans le CSV</text></g><!--reverse link Detect to CV2_manipulations--><g id="link_Detect_CV2_manipulations"><path codeLine="70" d="M200.13,438.8548 C173.76,450.9048 148.59,468.1248 133,492.6348 C123.8,507.0948 125.44,525.2848 130.46,541.5448 " fill="none" id="Detect-backto-CV2_manipulations" style="stroke:#181818;stroke-width:1.0;"/><polygon fill="#181818" points="212.31,433.6748,205.2223,432.3464,201.2701,438.3779,208.3578,439.7063,212.31,433.6748" style="stroke:#181818;stroke-width:1.0;"/><text fill="#000000" font-family="sans-serif" font-size="13" lengthAdjust="spacing" textLength="131" x="134" y="507.6631">Affichage des données</text></g><!--link CSV_manipulation to TrackedObjects--><g id="link_CSV_manipulation_TrackedObjects"><path codeLine="72" d="M389,626.7448 C389,645.1548 389,668.1048 389,692.3748 " fill="none" id="CSV_manipulation-to-TrackedObjects" style="stroke:#181818;stroke-width:1.0;"/><polygon fill="#181818" points="389,705.5648,393,699.5648,389,693.5648,385,699.5648,389,705.5648" style="stroke:#181818;stroke-width:1.0;"/><text fill="#000000" font-family="sans-serif" font-size="13" lengthAdjust="spacing" textLength="111" x="390" y="671.6631">Récupérer les infos</text></g><!--link CV2_manipulations to TrackedObjects--><g id="link_CV2_manipulations_TrackedObjects"><path codeLine="73" d="M187.15,626.7448 C203.87,645.9948 224.92,670.2348 247.07,695.7348 " fill="none" id="CV2_manipulations-to-TrackedObjects" style="stroke:#181818;stroke-width:1.0;"/><polygon fill="#181818" points="255.61,705.5648,254.6937,698.4121,247.7388,696.5069,248.6551,703.6596,255.61,705.5648" style="stroke:#181818;stroke-width:1.0;"/><text fill="#000000" font-family="sans-serif" font-size="13" lengthAdjust="spacing" textLength="111" x="229" y="671.6631">Récupérer les infos</text></g><!--link Detect to TrackedObjects--><g id="link_Detect_TrackedObjects"><path codeLine="74" d="M399.51,420.9048 C446.27,430.8048 498.95,451.1148 528,492.6348 C570.22,552.9848 551.89,627.8248 516.67,694.1048 " fill="none" id="Detect-to-TrackedObjects" style="stroke:#181818;stroke-width:1.0;"/><polygon fill="#181818" points="510.39,705.5148,516.7853,702.183,516.1695,694.9982,509.7742,698.33,510.39,705.5148" style="stroke:#181818;stroke-width:1.0;"/><text fill="#000000" font-family="sans-serif" font-size="13" lengthAdjust="spacing" textLength="272" x="553" y="589.6631">Enregistrement des données dans des classes</text></g><!--SRC=[bLJDJjmm4BxdANniGNiennL2egLSAbHKMgwHrvu4juvj-GUMLhnFzpdoOfsnOo29ggfe9Upv_VnzCuagQc0NYlUU3mCm2Kne7W8qJVxFhhWox5Vpr3IEYn-y1tQPZ8ZA6dPwMe_Xx0nZ6bPosGL4414j3FykxHJkl392EOxzP6B2IiZ-um4xl7bRpZ9dvjlJIxsl7bk3_BpxZiumrRq6Fq0amFruyE2PXi0iXc24iydd8BA1yT2h42a64nuP5s8yIBmvdGBhk50Q1Z2nG50cCYNBkTEMHxP_z_hsEBljJsQ-sKrOqoa9HamFHGYLtEUxL1uoFSKKaqDwXDMsu3- -jqgov2IFq3eR58LMih9FS2sI9lTpgPa_G5nuNX7xuUQs7RXHZYgGHeNQ3tuy07B7EYNk518bmdqfsOC1JytGiYfsUp8hLeKwxwWCP2tKW1CKI8PNQidnGAgFXsa6F7zeTpOPgKoFXps4PQjlKUcmdA-4HYZQ4tRdRPdfYZosdXjfXpRJkqAVGhJ3fVK3FizFjO-xV5_6tbWVLrFOSMIP6aUQLeG-ZPDDxOv7SLTLmQcu1n_R7RwiZRRzkNHaAtchunFNoEjxkozxuAiTeLYXilHvROXpoiq0QX1XhVZnbzVvQAEXYvjfJxVi6YlHPakYZoDfus_Sbb23lUhlC7hEq9PTgG2uN8muAhdQzg5fccdzZpR9ROfKMtRk7EXCqoHNo7gfIAo5UGf1tfQbHnfpvJ8fBs7IFfZDQdotxEFphjD2vrHfZS5nnWF7fgWFPgqABKTtEqrjPQKMQPh5jwWWNWFvCXv4SYyV9cKw6_wIl6x-7zbLmt- -d2pbwnEQFm00]--></g></svg>