<?xml version="1.0" encoding="us-ascii" standalone="no"?><svg xmlns="http://www.w3.org/2000/svg" xmlns:xlink="http://www.w3.org/1999/xlink" contentStyleType="text/css" height="806px" preserveAspectRatio="none" style="width:1255px;height:806px;background:#FFFFFF;" version="1.1" viewBox="0 0 1255 806" width="1255px" zoomAndPan="magnify"><defs/><g><text fill="#000000" font-family="sans-serif" font-size="14" font-weight="bold" lengthAdjust="spacing" textLength="172" x="534.5" y="22.9951">Diagramme de classe</text><!--cluster Function--><g id="cluster_Function"><path d="M8.5,43.2969 L80.5,43.2969 A3.75,3.75 0 0 1 83,45.7969 L90,65.5938 L1113.5,65.5938 A2.5,2.5 0 0 1 1116,68.0938 L1116,796.7969 A2.5,2.5 0 0 1 1113.5,799.2969 L8.5,799.2969 A2.5,2.5 0 0 1 6,796.7969 L6,45.7969 A2.5,2.5 0 0 1 8.5,43.2969 " fill="none" style="stroke:#000000;stroke-width:1.5;"/><line style="stroke:#000000;stroke-width:1.5;" x1="6" x2="90" y1="65.5938" y2="65.5938"/><text fill="#000000" font-family="sans-serif" font-size="14" font-weight="bold" lengthAdjust="spacing" textLength="71" x="10" y="58.292">Function</text><text fill="#000000" font-family="sans-serif" font-size="14" font-style="italic" lengthAdjust="spacing" textLength="86" x="522" y="80.5889">&#171;Functions&#187;</text></g><!--class Config_handler--><g id="elem_Config_handler"><rect codeLine="8" fill="#F1F1F1" height="162.0781" id="Config_handler" rx="2.5" ry="2.5" style="stroke:#181818;stroke-width:0.5;" width="466" x="403" y="94.2969"/><ellipse cx="577.75" cy="110.2969" fill="#ADD1B2" rx="11" ry="11" style="stroke:#181818;stroke-width:1.0;"/><path d="M580.0938,105.9688 C579.1563,105.5313 578.5625,105.3906 577.6875,105.3906 C575.0625,105.3906 573.0625,107.4688 573.0625,110.1875 L573.0625,111.3125 C573.0625,113.8906 575.1719,115.7813 578.0625,115.7813 C579.2813,115.7813 580.4375,115.4844 581.1875,114.9375 C581.7656,114.5313 582.0938,114.0781 582.0938,113.6875 C582.0938,113.2344 581.7031,112.8438 581.2344,112.8438 C581.0156,112.8438 580.8125,112.9219 580.625,113.1094 C580.1719,113.5938 580.1719,113.5938 579.9844,113.6875 C579.5625,113.9531 578.875,114.0781 578.1094,114.0781 C576.0625,114.0781 574.7656,112.9844 574.7656,111.2813 L574.7656,110.1875 C574.7656,108.4063 576.0156,107.0938 577.75,107.0938 C578.3281,107.0938 578.9375,107.25 579.4063,107.5 C579.8906,107.7813 580.0625,108 580.1563,108.4063 C580.2188,108.8125 580.25,108.9375 580.3906,109.0625 C580.5313,109.2031 580.7656,109.3125 580.9844,109.3125 C581.25,109.3125 581.5156,109.1719 581.6875,108.9531 C581.7969,108.7969 581.8281,108.6094 581.8281,108.1875 L581.8281,106.7656 C581.8281,106.3281 581.8125,106.2031 581.7188,106.0469 C581.5625,105.7813 581.2813,105.6406 580.9844,105.6406 C580.6875,105.6406 580.4844,105.7344 580.2656,106.0469 L580.0938,105.9688 Z " fill="#000000"/><text fill="#000000" font-family="sans-serif" font-size="14" lengthAdjust="spacing" textLength="108" x="598.25" y="115.1436">Config_handler</text><line style="stroke:#181818;stroke-width:0.5;" x1="404" x2="868" y1="126.2969" y2="126.2969"/><text fill="#000000" font-family="sans-serif" font-size="14" lengthAdjust="spacing" textLength="454" x="409" y="143.292">Permet de g&#233;n&#233;rer des dictionnaires contenant les param&#232;tres</text><line style="stroke:#181818;stroke-width:0.5;" x1="404" x2="868" y1="150.5938" y2="150.5938"/><ellipse cx="414" cy="164.2422" fill="#84BE84" rx="3" ry="3" style="stroke:#038048;stroke-width:1.0;"/><text fill="#000000" font-family="sans-serif" font-size="14" lengthAdjust="spacing" textLength="113" x="423" y="167.5889">check_params()</text><ellipse cx="414" cy="180.5391" fill="#84BE84" rx="3" ry="3" style="stroke:#038048;stroke-width:1.0;"/><text fill="#000000" font-family="sans-serif" font-size="14" lengthAdjust="spacing" textLength="136" x="423" y="183.8857">get_base_params()</text><ellipse cx="414" cy="196.8359" fill="#84BE84" rx="3" ry="3" style="stroke:#038048;stroke-width:1.0;"/><text fill="#000000" font-family="sans-serif" font-size="14" lengthAdjust="spacing" textLength="149" x="423" y="200.1826">get_yolov5_params()</text><ellipse cx="414" cy="213.1328" fill="#84BE84" rx="3" ry="3" style="stroke:#038048;stroke-width:1.0;"/><text fill="#000000" font-family="sans-serif" font-size="14" lengthAdjust="spacing" textLength="130" x="423" y="216.4795">get_bdd_params()</text><ellipse cx="414" cy="229.4297" fill="#84BE84" rx="3" ry="3" style="stroke:#038048;stroke-width:1.0;"/><text fill="#000000" font-family="sans-serif" font-size="14" lengthAdjust="spacing" textLength="98" x="423" y="232.7764">print_config()</text><ellipse cx="414" cy="245.7266" fill="#84BE84" rx="3" ry="3" style="stroke:#038048;stroke-width:1.0;"/><text fill="#000000" font-family="sans-serif" font-size="14" lengthAdjust="spacing" textLength="87" x="423" y="249.0732">get_config()</text></g><!--class CustomFormater--><g id="elem_CustomFormater"><rect codeLine="18" fill="#F1F1F1" height="80.5938" id="CustomFormater" rx="2.5" ry="2.5" style="stroke:#181818;stroke-width:0.5;" width="196" x="904" y="134.7969"/><ellipse cx="937.9" cy="150.7969" fill="#ADD1B2" rx="11" ry="11" style="stroke:#181818;stroke-width:1.0;"/><path d="M940.2438,146.4688 C939.3063,146.0313 938.7125,145.8906 937.8375,145.8906 C935.2125,145.8906 933.2125,147.9688 933.2125,150.6875 L933.2125,151.8125 C933.2125,154.3906 935.3219,156.2813 938.2125,156.2813 C939.4313,156.2813 940.5875,155.9844 941.3375,155.4375 C941.9156,155.0313 942.2438,154.5781 942.2438,154.1875 C942.2438,153.7344 941.8531,153.3438 941.3844,153.3438 C941.1656,153.3438 940.9625,153.4219 940.775,153.6094 C940.3219,154.0938 940.3219,154.0938 940.1344,154.1875 C939.7125,154.4531 939.025,154.5781 938.2594,154.5781 C936.2125,154.5781 934.9156,153.4844 934.9156,151.7813 L934.9156,150.6875 C934.9156,148.9063 936.1656,147.5938 937.9,147.5938 C938.4781,147.5938 939.0875,147.75 939.5563,148 C940.0406,148.2813 940.2125,148.5 940.3063,148.9063 C940.3688,149.3125 940.4,149.4375 940.5406,149.5625 C940.6813,149.7031 940.9156,149.8125 941.1344,149.8125 C941.4,149.8125 941.6656,149.6719 941.8375,149.4531 C941.9469,149.2969 941.9781,149.1094 941.9781,148.6875 L941.9781,147.2656 C941.9781,146.8281 941.9625,146.7031 941.8688,146.5469 C941.7125,146.2813 941.4313,146.1406 941.1344,146.1406 C940.8375,146.1406 940.6344,146.2344 940.4156,146.5469 L940.2438,146.4688 Z " fill="#000000"/><text fill="#000000" font-family="sans-serif" font-size="14" lengthAdjust="spacing" textLength="122" x="956.1" y="155.6436">CustomFormater</text><line style="stroke:#181818;stroke-width:0.5;" x1="905" x2="1099" y1="166.7969" y2="166.7969"/><text fill="#000000" font-family="sans-serif" font-size="14" lengthAdjust="spacing" textLength="184" x="910" y="183.792">Permet d'afficher les logs</text><line style="stroke:#181818;stroke-width:0.5;" x1="905" x2="1099" y1="191.0938" y2="191.0938"/><ellipse cx="915" cy="204.7422" fill="#84BE84" rx="3" ry="3" style="stroke:#038048;stroke-width:1.0;"/><text fill="#000000" font-family="sans-serif" font-size="14" lengthAdjust="spacing" textLength="60" x="924" y="208.0889">format()</text></g><!--class Detect--><g id="elem_Detect"><rect codeLine="23" fill="#F1F1F1" height="113.1875" id="Detect" rx="2.5" ry="2.5" style="stroke:#181818;stroke-width:0.5;" width="211" x="682.5" y="333.2969"/><ellipse cx="758.25" cy="349.2969" fill="#ADD1B2" rx="11" ry="11" style="stroke:#181818;stroke-width:1.0;"/><path d="M760.5938,344.9688 C759.6563,344.5313 759.0625,344.3906 758.1875,344.3906 C755.5625,344.3906 753.5625,346.4688 753.5625,349.1875 L753.5625,350.3125 C753.5625,352.8906 755.6719,354.7813 758.5625,354.7813 C759.7813,354.7813 760.9375,354.4844 761.6875,353.9375 C762.2656,353.5313 762.5938,353.0781 762.5938,352.6875 C762.5938,352.2344 762.2031,351.8438 761.7344,351.8438 C761.5156,351.8438 761.3125,351.9219 761.125,352.1094 C760.6719,352.5938 760.6719,352.5938 760.4844,352.6875 C760.0625,352.9531 759.375,353.0781 758.6094,353.0781 C756.5625,353.0781 755.2656,351.9844 755.2656,350.2813 L755.2656,349.1875 C755.2656,347.4063 756.5156,346.0938 758.25,346.0938 C758.8281,346.0938 759.4375,346.25 759.9063,346.5 C760.3906,346.7813 760.5625,347 760.6563,347.4063 C760.7188,347.8125 760.75,347.9375 760.8906,348.0625 C761.0313,348.2031 761.2656,348.3125 761.4844,348.3125 C761.75,348.3125 762.0156,348.1719 762.1875,347.9531 C762.2969,347.7969 762.3281,347.6094 762.3281,347.1875 L762.3281,345.7656 C762.3281,345.3281 762.3125,345.2031 762.2188,345.0469 C762.0625,344.7813 761.7813,344.6406 761.4844,344.6406 C761.1875,344.6406 760.9844,344.7344 760.7656,345.0469 L760.5938,344.9688 Z " fill="#000000"/><text fill="#000000" font-family="sans-serif" font-size="14" lengthAdjust="spacing" textLength="51" x="778.75" y="354.1436">Detect</text><line style="stroke:#181818;stroke-width:0.5;" x1="683.5" x2="892.5" y1="365.2969" y2="365.2969"/><text fill="#000000" font-family="sans-serif" font-size="14" lengthAdjust="spacing" textLength="199" x="688.5" y="382.292">Fonction principale du code</text><line style="stroke:#181818;stroke-width:0.5;" x1="683.5" x2="892.5" y1="389.5938" y2="389.5938"/><ellipse cx="693.5" cy="403.2422" fill="#84BE84" rx="3" ry="3" style="stroke:#038048;stroke-width:1.0;"/><text fill="#000000" font-family="sans-serif" font-size="14" lengthAdjust="spacing" textLength="81" x="702.5" y="406.5889">detection()</text><ellipse cx="693.5" cy="419.5391" fill="#84BE84" rx="3" ry="3" style="stroke:#038048;stroke-width:1.0;"/><text fill="#000000" font-family="sans-serif" font-size="14" lengthAdjust="spacing" textLength="112" x="702.5" y="422.8857">init_detection()</text><ellipse cx="693.5" cy="435.8359" fill="#84BE84" rx="3" ry="3" style="stroke:#038048;stroke-width:1.0;"/><text fill="#000000" font-family="sans-serif" font-size="14" lengthAdjust="spacing" textLength="45" x="702.5" y="439.1826">main()</text></g><!--class Save_utils--><g id="elem_Save_utils"><rect codeLine="30" fill="#F1F1F1" height="96.8906" id="Save_utils" rx="2.5" ry="2.5" style="stroke:#181818;stroke-width:0.5;" width="286" x="63" y="341.2969"/><ellipse cx="166.25" cy="357.2969" fill="#ADD1B2" rx="11" ry="11" style="stroke:#181818;stroke-width:1.0;"/><path d="M168.5938,352.9688 C167.6563,352.5313 167.0625,352.3906 166.1875,352.3906 C163.5625,352.3906 161.5625,354.4688 161.5625,357.1875 L161.5625,358.3125 C161.5625,360.8906 163.6719,362.7813 166.5625,362.7813 C167.7813,362.7813 168.9375,362.4844 169.6875,361.9375 C170.2656,361.5313 170.5938,361.0781 170.5938,360.6875 C170.5938,360.2344 170.2031,359.8438 169.7344,359.8438 C169.5156,359.8438 169.3125,359.9219 169.125,360.1094 C168.6719,360.5938 168.6719,360.5938 168.4844,360.6875 C168.0625,360.9531 167.375,361.0781 166.6094,361.0781 C164.5625,361.0781 163.2656,359.9844 163.2656,358.2813 L163.2656,357.1875 C163.2656,355.4063 164.5156,354.0938 166.25,354.0938 C166.8281,354.0938 167.4375,354.25 167.9063,354.5 C168.3906,354.7813 168.5625,355 168.6563,355.4063 C168.7188,355.8125 168.75,355.9375 168.8906,356.0625 C169.0313,356.2031 169.2656,356.3125 169.4844,356.3125 C169.75,356.3125 170.0156,356.1719 170.1875,355.9531 C170.2969,355.7969 170.3281,355.6094 170.3281,355.1875 L170.3281,353.7656 C170.3281,353.3281 170.3125,353.2031 170.2188,353.0469 C170.0625,352.7813 169.7813,352.6406 169.4844,352.6406 C169.1875,352.6406 168.9844,352.7344 168.7656,353.0469 L168.5938,352.9688 Z " fill="#000000"/><text fill="#000000" font-family="sans-serif" font-size="14" lengthAdjust="spacing" textLength="71" x="186.75" y="362.1436">Save_utils</text><line style="stroke:#181818;stroke-width:0.5;" x1="64" x2="348" y1="373.2969" y2="373.2969"/><text fill="#000000" font-family="sans-serif" font-size="14" lengthAdjust="spacing" textLength="274" x="69" y="390.292">Cr&#233;e le fichier csv/ la base de donn&#233;es</text><line style="stroke:#181818;stroke-width:0.5;" x1="64" x2="348" y1="397.5938" y2="397.5938"/><ellipse cx="74" cy="411.2422" fill="#84BE84" rx="3" ry="3" style="stroke:#038048;stroke-width:1.0;"/><text fill="#000000" font-family="sans-serif" font-size="14" lengthAdjust="spacing" textLength="77" x="83" y="414.5889">save_bdd()</text><ellipse cx="74" cy="427.5391" fill="#84BE84" rx="3" ry="3" style="stroke:#038048;stroke-width:1.0;"/><text fill="#000000" font-family="sans-serif" font-size="14" lengthAdjust="spacing" textLength="72" x="83" y="430.8857">save_csv()</text></g><!--class TrackedObjects--><g id="elem_TrackedObjects"><rect codeLine="36" fill="#F1F1F1" height="259.8594" id="TrackedObjects" rx="2.5" ry="2.5" style="stroke:#181818;stroke-width:0.5;" width="339" x="320.5" y="523.2969"/><ellipse cx="428.75" cy="539.2969" fill="#ADD1B2" rx="11" ry="11" style="stroke:#181818;stroke-width:1.0;"/><path d="M431.0938,534.9688 C430.1563,534.5313 429.5625,534.3906 428.6875,534.3906 C426.0625,534.3906 424.0625,536.4688 424.0625,539.1875 L424.0625,540.3125 C424.0625,542.8906 426.1719,544.7813 429.0625,544.7813 C430.2813,544.7813 431.4375,544.4844 432.1875,543.9375 C432.7656,543.5313 433.0938,543.0781 433.0938,542.6875 C433.0938,542.2344 432.7031,541.8438 432.2344,541.8438 C432.0156,541.8438 431.8125,541.9219 431.625,542.1094 C431.1719,542.5938 431.1719,542.5938 430.9844,542.6875 C430.5625,542.9531 429.875,543.0781 429.1094,543.0781 C427.0625,543.0781 425.7656,541.9844 425.7656,540.2813 L425.7656,539.1875 C425.7656,537.4063 427.0156,536.0938 428.75,536.0938 C429.3281,536.0938 429.9375,536.25 430.4063,536.5 C430.8906,536.7813 431.0625,537 431.1563,537.4063 C431.2188,537.8125 431.25,537.9375 431.3906,538.0625 C431.5313,538.2031 431.7656,538.3125 431.9844,538.3125 C432.25,538.3125 432.5156,538.1719 432.6875,537.9531 C432.7969,537.7969 432.8281,537.6094 432.8281,537.1875 L432.8281,535.7656 C432.8281,535.3281 432.8125,535.2031 432.7188,535.0469 C432.5625,534.7813 432.2813,534.6406 431.9844,534.6406 C431.6875,534.6406 431.4844,534.7344 431.2656,535.0469 L431.0938,534.9688 Z " fill="#000000"/><text fill="#000000" font-family="sans-serif" font-size="14" lengthAdjust="spacing" textLength="114" x="449.25" y="544.1436">TrackedObjects</text><line style="stroke:#181818;stroke-width:0.5;" x1="321.5" x2="658.5" y1="555.2969" y2="555.2969"/><text fill="#000000" font-family="sans-serif" font-size="14" lengthAdjust="spacing" textLength="230" x="340.5" y="572.292">Permet de g&#233;rer les objets pour</text><text fill="#000000" font-family="sans-serif" font-size="14" lengthAdjust="spacing" textLength="313" x="340.5" y="588.5889">les enregistrer et y acc&#233;der plus facilement</text><ellipse cx="331.5" cy="601.5391" fill="none" rx="3" ry="3" style="stroke:#038048;stroke-width:1.0;"/><text fill="#000000" font-family="sans-serif" font-size="14" lengthAdjust="spacing" textLength="67" x="340.5" y="604.8857">int obj_id</text><ellipse cx="331.5" cy="617.8359" fill="none" rx="3" ry="3" style="stroke:#038048;stroke-width:1.0;"/><text fill="#000000" font-family="sans-serif" font-size="14" lengthAdjust="spacing" textLength="55" x="340.5" y="621.1826">float x1</text><ellipse cx="331.5" cy="634.1328" fill="none" rx="3" ry="3" style="stroke:#038048;stroke-width:1.0;"/><text fill="#000000" font-family="sans-serif" font-size="14" lengthAdjust="spacing" textLength="55" x="340.5" y="637.4795">float y1</text><ellipse cx="331.5" cy="650.4297" fill="none" rx="3" ry="3" style="stroke:#038048;stroke-width:1.0;"/><text fill="#000000" font-family="sans-serif" font-size="14" lengthAdjust="spacing" textLength="54" x="340.5" y="653.7764">float x2</text><ellipse cx="331.5" cy="666.7266" fill="none" rx="3" ry="3" style="stroke:#038048;stroke-width:1.0;"/><text fill="#000000" font-family="sans-serif" font-size="14" lengthAdjust="spacing" textLength="54" x="340.5" y="670.0732">float y2</text><ellipse cx="331.5" cy="683.0234" fill="none" rx="3" ry="3" style="stroke:#038048;stroke-width:1.0;"/><text fill="#000000" font-family="sans-serif" font-size="14" lengthAdjust="spacing" textLength="67" x="340.5" y="686.3701">str classe</text><ellipse cx="331.5" cy="699.3203" fill="none" rx="3" ry="3" style="stroke:#038048;stroke-width:1.0;"/><text fill="#000000" font-family="sans-serif" font-size="14" lengthAdjust="spacing" textLength="215" x="340.5" y="702.667">array[x1, y1, x2, y2] : positions</text><ellipse cx="331.5" cy="715.6172" fill="none" rx="3" ry="3" style="stroke:#038048;stroke-width:1.0;"/><text fill="#000000" font-family="sans-serif" font-size="14" lengthAdjust="spacing" textLength="89" x="340.5" y="718.9639">str direction</text><line style="stroke:#181818;stroke-width:0.5;" x1="321.5" x2="658.5" y1="726.2656" y2="726.2656"/><ellipse cx="331.5" cy="739.9141" fill="#84BE84" rx="3" ry="3" style="stroke:#038048;stroke-width:1.0;"/><text fill="#000000" font-family="sans-serif" font-size="14" lengthAdjust="spacing" textLength="161" x="340.5" y="743.2607">void update_position()</text><ellipse cx="331.5" cy="756.2109" fill="#84BE84" rx="3" ry="3" style="stroke:#038048;stroke-width:1.0;"/><text fill="#000000" font-family="sans-serif" font-size="14" lengthAdjust="spacing" textLength="139" x="340.5" y="759.5576">void set_direction()</text><ellipse cx="331.5" cy="772.5078" fill="#84BE84" rx="3" ry="3" style="stroke:#038048;stroke-width:1.0;"/><text fill="#000000" font-family="sans-serif" font-size="14" lengthAdjust="spacing" textLength="180" x="340.5" y="775.8545">void calculate_direction()</text></g><!--class Utils--><g id="elem_Utils"><rect codeLine="52" fill="#F1F1F1" height="96.8906" id="Utils" rx="2.5" ry="2.5" style="stroke:#181818;stroke-width:0.5;" width="346" x="22" y="126.7969"/><ellipse cx="175.25" cy="142.7969" fill="#ADD1B2" rx="11" ry="11" style="stroke:#181818;stroke-width:1.0;"/><path d="M177.5938,138.4688 C176.6563,138.0313 176.0625,137.8906 175.1875,137.8906 C172.5625,137.8906 170.5625,139.9688 170.5625,142.6875 L170.5625,143.8125 C170.5625,146.3906 172.6719,148.2813 175.5625,148.2813 C176.7813,148.2813 177.9375,147.9844 178.6875,147.4375 C179.2656,147.0313 179.5938,146.5781 179.5938,146.1875 C179.5938,145.7344 179.2031,145.3438 178.7344,145.3438 C178.5156,145.3438 178.3125,145.4219 178.125,145.6094 C177.6719,146.0938 177.6719,146.0938 177.4844,146.1875 C177.0625,146.4531 176.375,146.5781 175.6094,146.5781 C173.5625,146.5781 172.2656,145.4844 172.2656,143.7813 L172.2656,142.6875 C172.2656,140.9063 173.5156,139.5938 175.25,139.5938 C175.8281,139.5938 176.4375,139.75 176.9063,140 C177.3906,140.2813 177.5625,140.5 177.6563,140.9063 C177.7188,141.3125 177.75,141.4375 177.8906,141.5625 C178.0313,141.7031 178.2656,141.8125 178.4844,141.8125 C178.75,141.8125 179.0156,141.6719 179.1875,141.4531 C179.2969,141.2969 179.3281,141.1094 179.3281,140.6875 L179.3281,139.2656 C179.3281,138.8281 179.3125,138.7031 179.2188,138.5469 C179.0625,138.2813 178.7813,138.1406 178.4844,138.1406 C178.1875,138.1406 177.9844,138.2344 177.7656,138.5469 L177.5938,138.4688 Z " fill="#000000"/><text fill="#000000" font-family="sans-serif" font-size="14" lengthAdjust="spacing" textLength="31" x="195.75" y="147.6436">Utils</text><line style="stroke:#181818;stroke-width:0.5;" x1="23" x2="367" y1="158.7969" y2="158.7969"/><text fill="#000000" font-family="sans-serif" font-size="14" lengthAdjust="spacing" textLength="334" x="28" y="175.792">Diff&#233;rentes fonction utiles pour le programme</text><line style="stroke:#181818;stroke-width:0.5;" x1="23" x2="367" y1="183.0938" y2="183.0938"/><ellipse cx="33" cy="196.7422" fill="#84BE84" rx="3" ry="3" style="stroke:#038048;stroke-width:1.0;"/><text fill="#000000" font-family="sans-serif" font-size="14" lengthAdjust="spacing" textLength="288" x="42" y="200.0889">yolo_detections_to_norfair_detections()</text><ellipse cx="33" cy="213.0391" fill="#84BE84" rx="3" ry="3" style="stroke:#038048;stroke-width:1.0;"/><text fill="#000000" font-family="sans-serif" font-size="14" lengthAdjust="spacing" textLength="149" x="42" y="216.3857">get_label_by_name()</text></g><!--class YOLO--><g id="elem_YOLO"><rect codeLine="58" fill="#F1F1F1" height="96.8906" id="YOLO" rx="2.5" ry="2.5" style="stroke:#181818;stroke-width:0.5;" width="344" x="695" y="604.7969"/><ellipse cx="843.25" cy="620.7969" fill="#ADD1B2" rx="11" ry="11" style="stroke:#181818;stroke-width:1.0;"/><path d="M845.5938,616.4688 C844.6563,616.0313 844.0625,615.8906 843.1875,615.8906 C840.5625,615.8906 838.5625,617.9688 838.5625,620.6875 L838.5625,621.8125 C838.5625,624.3906 840.6719,626.2813 843.5625,626.2813 C844.7813,626.2813 845.9375,625.9844 846.6875,625.4375 C847.2656,625.0313 847.5938,624.5781 847.5938,624.1875 C847.5938,623.7344 847.2031,623.3438 846.7344,623.3438 C846.5156,623.3438 846.3125,623.4219 846.125,623.6094 C845.6719,624.0938 845.6719,624.0938 845.4844,624.1875 C845.0625,624.4531 844.375,624.5781 843.6094,624.5781 C841.5625,624.5781 840.2656,623.4844 840.2656,621.7813 L840.2656,620.6875 C840.2656,618.9063 841.5156,617.5938 843.25,617.5938 C843.8281,617.5938 844.4375,617.75 844.9063,618 C845.3906,618.2813 845.5625,618.5 845.6563,618.9063 C845.7188,619.3125 845.75,619.4375 845.8906,619.5625 C846.0313,619.7031 846.2656,619.8125 846.4844,619.8125 C846.75,619.8125 847.0156,619.6719 847.1875,619.4531 C847.2969,619.2969 847.3281,619.1094 847.3281,618.6875 L847.3281,617.2656 C847.3281,616.8281 847.3125,616.7031 847.2188,616.5469 C847.0625,616.2813 846.7813,616.1406 846.4844,616.1406 C846.1875,616.1406 845.9844,616.2344 845.7656,616.5469 L845.5938,616.4688 Z " fill="#000000"/><text fill="#000000" font-family="sans-serif" font-size="14" lengthAdjust="spacing" textLength="39" x="863.75" y="625.6436">YOLO</text><line style="stroke:#181818;stroke-width:0.5;" x1="696" x2="1038" y1="636.7969" y2="636.7969"/><text fill="#000000" font-family="sans-serif" font-size="14" lengthAdjust="spacing" textLength="332" x="701" y="653.792">Classe permettant d'intialiser le mod&#232;le YOLO</text><line style="stroke:#181818;stroke-width:0.5;" x1="696" x2="1038" y1="661.0938" y2="661.0938"/><ellipse cx="706" cy="674.7422" fill="#84BE84" rx="3" ry="3" style="stroke:#038048;stroke-width:1.0;"/><text fill="#000000" font-family="sans-serif" font-size="14" lengthAdjust="spacing" textLength="62" x="715" y="678.0889">__init__()</text><ellipse cx="706" cy="691.0391" fill="#84BE84" rx="3" ry="3" style="stroke:#038048;stroke-width:1.0;"/><text fill="#000000" font-family="sans-serif" font-size="14" lengthAdjust="spacing" textLength="62" x="715" y="694.3857">__call__()</text></g><!--class Main--><g id="elem_Main"><rect codeLine="3" fill="#F1F1F1" height="48" id="Main" rx="2.5" ry="2.5" style="stroke:#181818;stroke-width:0.5;" width="65" x="1132.5" y="365.7969"/><ellipse cx="1147.5" cy="381.7969" fill="#ADD1B2" rx="11" ry="11" style="stroke:#181818;stroke-width:1.0;"/><path d="M1149.8438,377.4688 C1148.9063,377.0313 1148.3125,376.8906 1147.4375,376.8906 C1144.8125,376.8906 1142.8125,378.9688 1142.8125,381.6875 L1142.8125,382.8125 C1142.8125,385.3906 1144.9219,387.2813 1147.8125,387.2813 C1149.0313,387.2813 1150.1875,386.9844 1150.9375,386.4375 C1151.5156,386.0313 1151.8438,385.5781 1151.8438,385.1875 C1151.8438,384.7344 1151.4531,384.3438 1150.9844,384.3438 C1150.7656,384.3438 1150.5625,384.4219 1150.375,384.6094 C1149.9219,385.0938 1149.9219,385.0938 1149.7344,385.1875 C1149.3125,385.4531 1148.625,385.5781 1147.8594,385.5781 C1145.8125,385.5781 1144.5156,384.4844 1144.5156,382.7813 L1144.5156,381.6875 C1144.5156,379.9063 1145.7656,378.5938 1147.5,378.5938 C1148.0781,378.5938 1148.6875,378.75 1149.1563,379 C1149.6406,379.2813 1149.8125,379.5 1149.9063,379.9063 C1149.9688,380.3125 1150,380.4375 1150.1406,380.5625 C1150.2813,380.7031 1150.5156,380.8125 1150.7344,380.8125 C1151,380.8125 1151.2656,380.6719 1151.4375,380.4531 C1151.5469,380.2969 1151.5781,380.1094 1151.5781,379.6875 L1151.5781,378.2656 C1151.5781,377.8281 1151.5625,377.7031 1151.4688,377.5469 C1151.3125,377.2813 1151.0313,377.1406 1150.7344,377.1406 C1150.4375,377.1406 1150.2344,377.2344 1150.0156,377.5469 L1149.8438,377.4688 Z " fill="#000000"/><text fill="#000000" font-family="sans-serif" font-size="14" lengthAdjust="spacing" textLength="33" x="1161.5" y="386.6436">Main</text><line style="stroke:#181818;stroke-width:0.5;" x1="1133.5" x2="1196.5" y1="397.7969" y2="397.7969"/><line style="stroke:#181818;stroke-width:0.5;" x1="1133.5" x2="1196.5" y1="405.7969" y2="405.7969"/></g><!--link Detect to Main--><g id="link_Detect_Main"><path codeLine="66" d="M893.517,389.7969 C967.617,389.7969 1063.09,389.7969 1118.83,389.7969 " fill="none" id="Detect-to-Main" style="stroke:#181818;stroke-width:1.0;"/><polygon fill="#181818" points="1132.11,389.7969,1126.11,385.7969,1120.11,389.7969,1126.11,393.7969,1132.11,389.7969" style="stroke:#181818;stroke-width:1.0;"/><text fill="#000000" font-family="sans-serif" font-size="13" lengthAdjust="spacing" textLength="160" x="933" y="382.8638">Passage des param&#232;tres</text></g><!--link CustomFormater to Main--><g id="link_CustomFormater_Main"><path codeLine="67" d="M1032.66,216.2669 C1063.46,256.4259 1110.4,317.6179 1139.31,355.3069 " fill="none" id="CustomFormater-to-Main" style="stroke:#181818;stroke-width:1.0;"/><polygon fill="#181818" points="1147.31,365.7379,1146.8315,358.5427,1140.0058,356.2169,1140.4842,363.4121,1147.31,365.7379" style="stroke:#181818;stroke-width:1.0;"/><text fill="#000000" font-family="sans-serif" font-size="13" lengthAdjust="spacing" textLength="148" x="1099" y="299.3638">Mise en forme des logs</text></g><!--link Config_handler to Main--><g id="link_Config_handler_Main"><path codeLine="68" d="M773.536,256.3519 C809.471,274.3189 848.851,291.5239 887,303.2969 C985.083,333.5669 1025.38,285.0889 1116,333.2969 C1126,338.6189 1134.93,346.8569 1142.33,355.3709 " fill="none" id="Config_handler-to-Main" style="stroke:#181818;stroke-width:1.0;"/><polygon fill="#181818" points="1150.58,365.7169,1149.9707,358.5316,1143.1038,356.3304,1143.7131,363.5157,1150.58,365.7169" style="stroke:#181818;stroke-width:1.0;"/><text fill="#000000" font-family="sans-serif" font-size="13" lengthAdjust="spacing" textLength="191" x="888" y="299.3638">R&#233;cup&#233;ration des param&#232;tres</text></g><!--link Detect to TrackedObjects--><g id="link_Detect_TrackedObjects"><path codeLine="70" d="M682.351,395.1169 C621.621,403.5049 549.227,424.6999 507,476.2969 C498.689,486.4529 492.679,498.1249 488.434,510.5229 " fill="none" id="Detect-to-TrackedObjects" style="stroke:#181818;stroke-width:1.0;"/><polygon fill="#181818" points="484.758,523.1349,490.2775,518.4943,488.1168,511.6145,482.5973,516.2551,484.758,523.1349" style="stroke:#181818;stroke-width:1.0;"/><text fill="#000000" font-family="sans-serif" font-size="13" lengthAdjust="spacing" textLength="298" x="508" y="489.3638">Enregistrement des donn&#233;es dans des classes</text></g><!--link Utils to Detect--><g id="link_Utils_Detect"><path codeLine="72" d="M303.658,223.8269 C330.109,234.9029 358.435,246.3559 385,256.2969 C479.776,291.7639 588.906,327.3279 669.681,352.6679 " fill="none" id="Utils-to-Detect" style="stroke:#181818;stroke-width:1.0;"/><polygon fill="#181818" points="682.395,356.6459,677.8629,351.0369,670.9423,353.063,675.4744,358.672,682.395,356.6459" style="stroke:#181818;stroke-width:1.0;"/><text fill="#000000" font-family="sans-serif" font-size="13" lengthAdjust="spacing" textLength="181" x="517" y="299.3638">Appel de fonctions utilitaires</text></g><!--link Save_utils to Detect--><g id="link_Save_utils_Detect"><path codeLine="73" d="M349.119,389.7969 C447.382,389.7969 576.286,389.7969 668.936,389.7969 " fill="none" id="Save_utils-to-Detect" style="stroke:#181818;stroke-width:1.0;"/><polygon fill="#181818" points="682.048,389.7969,676.048,385.7969,670.048,389.7969,676.048,393.7969,682.048,389.7969" style="stroke:#181818;stroke-width:1.0;"/><text fill="#000000" font-family="sans-serif" font-size="13" lengthAdjust="spacing" textLength="297" x="367.25" y="382.8638">Enregistrement des donn&#233;es dans le CSV/BDD</text></g><!--reverse link Detect to YOLO--><g id="link_Detect_YOLO"><path codeLine="74" d="M808.63,459.0839 C822.435,504.7799 840.259,563.7819 852.56,604.4999 " fill="none" id="Detect-backto-YOLO" style="stroke:#181818;stroke-width:1.0;"/><polygon fill="#181818" points="804.851,446.5749,802.7574,453.4754,808.3218,458.062,810.4154,451.1615,804.851,446.5749" style="stroke:#181818;stroke-width:1.0;"/><text fill="#000000" font-family="sans-serif" font-size="13" lengthAdjust="spacing" textLength="186" x="819" y="489.3638">Initialisation du mod&#232;le YOLO</text></g><!--SRC=[ZLJRQXin47tVhvYtz18J4kYB2O4sRg3GaD2qXLAAaALPHurMMYIj6rFoF_5tx8zrTDbulSb3Gs0zexdfd3CAAcY4XU8hnvi6GI88pRt7gafVkEJAmD_geQfQBkxu2k6YCo8eQ-3qTFZfpyuefeAS2-VMr6h5RhcH6XsT0FrTesimn0QhVclwhQCJYHwaIYKCLuuiOKr0mqq0JLRBQQh-CT19gl5MtAAuOydjNxtElXK6jkGUNt1lhBRhTo_5IpdnjawPm4IQV1mvyZoCRjZvO9iBwneUdjtmWDUreabTkeEsgp9ydSAdfHOOK8HIui8MRECuGhMSo94TeI8nrv0fcYA66PLHWJtpDiJQjD4DNoFhWjA-D3jt_HPfHeZJAXfN-FKHQ0uHpKYK95eef8plOpu1D_H8DgLC-tnr91IKLylVD9D_YNrNeB4KGX6jxLmAYZuq3bVAXnX32HlWGlHRILQhEmyr5qfZWoOCrm-n35EoOAmj3t1_FBOsUzRzoTvPiQZX8FnaS-VuvkVzyI5b7r8EVKz-mPnczIefVfScIRW9_EnQMoMXQoK9WmtH0sJfp9EgddBsJWJNejCnSVzy1Ewt4NyBLTSHJDeO0cPGJcGOCwYHszRPlDgvJzo8dLmy2vOPwsfQlf5th7_DbwZPSiCCRt0wpO-hprU3c19uq2QUGrnWUK3aAAwLJtH3OsN_ID-ObEipbjJBXdwC4GAwsDI6_jFpysQciGwpiYfpkAPMyIMIaoUY17VjRBAWSxYaAKXR47Sm9wQz76ViFLfp-D9lHTSIlZp1EkrLJMIUYmmJVdnISPHgVkVACe7anYTFrXkLAaz0Bf4OdiFxjaKTzsKWrYTcLKZlv2ub8xFRxV_eJHoSttm_-h1OxCf8-yVC4ZLp-4Ia9DxApRizwlu1]--></g></svg>