<svg version="1.1" xmlns="http://www.w3.org/2000/svg" viewBox="0 0 1034 587.5" width="1034" height="587.5">
  <!-- svg-source:excalidraw -->
  
  <defs>
    <style class="style-fonts">
      @font-face {
        font-family: "Virgil";
        src: url("https://excalidraw.com/Virgil.woff2");
      }
      @font-face {
        font-family: "Cascadia";
        src: url("https://excalidraw.com/Cascadia.woff2");
      }
    </style>
  </defs>
  <rect x="0" y="0" width="1034" height="587.5" fill="#ffffff"></rect><g transform="translate(561.1759040356121 230.5349179540496) rotate(0 46 13)"><text x="46" y="19" font-family="Virgil, Segoe UI Emoji" font-size="20px" fill="#0b7285" text-anchor="middle" style="white-space: pre;" direction="ltr">Affichage</text></g><g stroke-linecap="round" transform="translate(516.4610794076673 207.89398848604202) rotate(0 90.71482462794506 35.70302334754467)"><path d="M17.85 0 M17.85 0 C69.74 0, 121.63 0, 163.58 0 M17.85 0 C57.06 0, 96.27 0, 163.58 0 M163.58 0 C175.48 0, 181.43 5.95, 181.43 17.85 M163.58 0 C175.48 0, 181.43 5.95, 181.43 17.85 M181.43 17.85 C181.43 30.25, 181.43 42.65, 181.43 53.55 M181.43 17.85 C181.43 31.29, 181.43 44.73, 181.43 53.55 M181.43 53.55 C181.43 65.46, 175.48 71.41, 163.58 71.41 M181.43 53.55 C181.43 65.46, 175.48 71.41, 163.58 71.41 M163.58 71.41 C110.84 71.41, 58.11 71.41, 17.85 71.41 M163.58 71.41 C131.08 71.41, 98.59 71.41, 17.85 71.41 M17.85 71.41 C5.95 71.41, 0 65.46, 0 53.55 M17.85 71.41 C5.95 71.41, 0 65.46, 0 53.55 M0 53.55 C0 44.75, 0 35.94, 0 17.85 M0 53.55 C0 42.7, 0 31.85, 0 17.85 M0 17.85 C0 5.95, 5.95 0, 17.85 0 M0 17.85 C0 5.95, 5.95 0, 17.85 0" stroke="#0b7285" stroke-width="2" fill="none"></path></g><g transform="translate(330.48701930696103 230.53491795404926) rotate(0 72 13)"><text x="72" y="19" font-family="Virgil, Segoe UI Emoji" font-size="20px" fill="#0b7285" text-anchor="middle" style="white-space: pre;" direction="ltr">Enregistrement</text></g><g stroke-linecap="round" transform="translate(311.7721946790163 207.89398848604202) rotate(0 90.71482462794506 35.70302334754467)"><path d="M17.85 0 M17.85 0 C74.86 0, 131.88 0, 163.58 0 M17.85 0 C68.03 0, 118.2 0, 163.58 0 M163.58 0 C175.48 0, 181.43 5.95, 181.43 17.85 M163.58 0 C175.48 0, 181.43 5.95, 181.43 17.85 M181.43 17.85 C181.43 27.97, 181.43 38.09, 181.43 53.55 M181.43 17.85 C181.43 31.35, 181.43 44.84, 181.43 53.55 M181.43 53.55 C181.43 65.46, 175.48 71.41, 163.58 71.41 M181.43 53.55 C181.43 65.46, 175.48 71.41, 163.58 71.41 M163.58 71.41 C133.87 71.41, 104.16 71.41, 17.85 71.41 M163.58 71.41 C124.67 71.41, 85.77 71.41, 17.85 71.41 M17.85 71.41 C5.95 71.41, 0 65.46, 0 53.55 M17.85 71.41 C5.95 71.41, 0 65.46, 0 53.55 M0 53.55 C0 43.19, 0 32.83, 0 17.85 M0 53.55 C0 44.3, 0 35.04, 0 17.85 M0 17.85 C0 5.95, 5.95 0, 17.85 0 M0 17.85 C0 5.95, 5.95 0, 17.85 0" stroke="#0b7285" stroke-width="2" fill="none"></path></g><g transform="translate(478.28087962108447 361.1771035802873) rotate(0 28.5 18)"><text x="28.5" y="26" font-family="Virgil, Segoe UI Emoji" font-size="28px" fill="#5c940d" text-anchor="middle" style="white-space: pre;" direction="ltr">Trie</text></g><g stroke-linecap="round" transform="translate(416.06605499313895 343.53617411228004) rotate(0 90.71482462794506 35.703023347544644)"><path d="M17.85 0 M17.85 0 C57.26 0, 96.67 0, 163.58 0 M17.85 0 C51.76 0, 85.66 0, 163.58 0 M163.58 0 C175.48 0, 181.43 5.95, 181.43 17.85 M163.58 0 C175.48 0, 181.43 5.95, 181.43 17.85 M181.43 17.85 C181.43 31.66, 181.43 45.47, 181.43 53.55 M181.43 17.85 C181.43 25.75, 181.43 33.64, 181.43 53.55 M181.43 53.55 C181.43 65.46, 175.48 71.41, 163.58 71.41 M181.43 53.55 C181.43 65.46, 175.48 71.41, 163.58 71.41 M163.58 71.41 C128.93 71.41, 94.28 71.41, 17.85 71.41 M163.58 71.41 C107.61 71.41, 51.64 71.41, 17.85 71.41 M17.85 71.41 C5.95 71.41, 0 65.46, 0 53.55 M17.85 71.41 C5.95 71.41, 0 65.46, 0 53.55 M0 53.55 C0 43.43, 0 33.31, 0 17.85 M0 53.55 C0 39.75, 0 25.94, 0 17.85 M0 17.85 C0 5.95, 5.95 0, 17.85 0 M0 17.85 C0 5.95, 5.95 0, 17.85 0" stroke="#5c940d" stroke-width="2" fill="none"></path></g><g transform="translate(438.7808796210847 488.1812496597441) rotate(0 68 18)"><text x="68" y="26" font-family="Virgil, Segoe UI Emoji" font-size="28px" fill="#087f5b" text-anchor="middle" style="white-space: pre;" direction="ltr">Détection</text></g><g stroke-linecap="round" transform="translate(416.06605499313895 470.54032019173684) rotate(0 90.71482462794506 35.70302334754467)"><path d="M17.85 0 M17.85 0 C73.57 0, 129.29 0, 163.58 0 M17.85 0 C55.98 0, 94.11 0, 163.58 0 M163.58 0 C175.48 0, 181.43 5.95, 181.43 17.85 M163.58 0 C175.48 0, 181.43 5.95, 181.43 17.85 M181.43 17.85 C181.43 25.62, 181.43 33.39, 181.43 53.55 M181.43 17.85 C181.43 26.35, 181.43 34.85, 181.43 53.55 M181.43 53.55 C181.43 65.46, 175.48 71.41, 163.58 71.41 M181.43 53.55 C181.43 65.46, 175.48 71.41, 163.58 71.41 M163.58 71.41 C121.3 71.41, 79.02 71.41, 17.85 71.41 M163.58 71.41 C105.29 71.41, 47.01 71.41, 17.85 71.41 M17.85 71.41 C5.95 71.41, 0 65.46, 0 53.55 M17.85 71.41 C5.95 71.41, 0 65.46, 0 53.55 M0 53.55 C0 45.52, 0 37.49, 0 17.85 M0 53.55 C0 42.71, 0 31.87, 0 17.85 M0 17.85 C0 5.95, 5.95 0, 17.85 0 M0 17.85 C0 5.95, 5.95 0, 17.85 0" stroke="#087f5b" stroke-width="2" fill="none"></path></g><g transform="translate(129.87444226234476 483.1812496597441) rotate(0 38.5 23)"><text x="38.5" y="33" font-family="Virgil, Segoe UI Emoji" font-size="36px" fill="#5f3dc4" text-anchor="middle" style="white-space: pre;" direction="ltr">Main</text></g><g stroke-linecap="round" transform="translate(77.65961763439907 470.54032019173684) rotate(0 90.71482462794503 35.70302334754467)"><path d="M17.85 0 M17.85 0 C57.55 0, 97.24 0, 163.58 0 M17.85 0 C66.13 0, 114.41 0, 163.58 0 M163.58 0 C175.48 0, 181.43 5.95, 181.43 17.85 M163.58 0 C175.48 0, 181.43 5.95, 181.43 17.85 M181.43 17.85 C181.43 28.51, 181.43 39.17, 181.43 53.55 M181.43 17.85 C181.43 26.82, 181.43 35.8, 181.43 53.55 M181.43 53.55 C181.43 65.46, 175.48 71.41, 163.58 71.41 M181.43 53.55 C181.43 65.46, 175.48 71.41, 163.58 71.41 M163.58 71.41 C131.54 71.41, 99.51 71.41, 17.85 71.41 M163.58 71.41 C118.78 71.41, 73.99 71.41, 17.85 71.41 M17.85 71.41 C5.95 71.41, 0 65.46, 0 53.55 M17.85 71.41 C5.95 71.41, 0 65.46, 0 53.55 M0 53.55 C0 41.12, 0 28.68, 0 17.85 M0 53.55 C0 41.69, 0 29.82, 0 17.85 M0 17.85 C0 5.95, 5.95 0, 17.85 0 M0 17.85 C0 5.95, 5.95 0, 17.85 0" stroke="#5f3dc4" stroke-width="2" fill="none"></path></g><g transform="translate(302.4238262931636 89.82275211421401) rotate(0 18 13)"><text x="18" y="19" font-family="Virgil, Segoe UI Emoji" font-size="20px" fill="#d9480f" text-anchor="middle" style="white-space: pre;" direction="ltr">CSV</text></g><g stroke-linecap="round" transform="translate(254.30145932940246 76.82866602594777) rotate(0 66.12236696376152 26.024064106219413)"><path d="M13.01 0 M13.01 0 C46.81 0, 80.61 0, 119.23 0 M13.01 0 C53.36 0, 93.71 0, 119.23 0 M119.23 0 C127.91 0, 132.24 4.34, 132.24 13.01 M119.23 0 C127.91 0, 132.24 4.34, 132.24 13.01 M132.24 13.01 C132.24 21.29, 132.24 29.58, 132.24 39.04 M132.24 13.01 C132.24 18.45, 132.24 23.88, 132.24 39.04 M132.24 39.04 C132.24 47.71, 127.91 52.05, 119.23 52.05 M132.24 39.04 C132.24 47.71, 127.91 52.05, 119.23 52.05 M119.23 52.05 C84.87 52.05, 50.5 52.05, 13.01 52.05 M119.23 52.05 C97.96 52.05, 76.69 52.05, 13.01 52.05 M13.01 52.05 C4.34 52.05, 0 47.71, 0 39.04 M13.01 52.05 C4.34 52.05, 0 47.71, 0 39.04 M0 39.04 C0 33.62, 0 28.2, 0 13.01 M0 39.04 C0 29.14, 0 19.23, 0 13.01 M0 13.01 C0 4.34, 4.34 0, 13.01 0 M0 13.01 C0 4.34, 4.34 0, 13.01 0" stroke="#d9480f" stroke-width="2" fill="none"></path></g><g transform="translate(443.7002737348395 89.82275211421401) rotate(0 38 13)"><text x="38" y="19" font-family="Virgil, Segoe UI Emoji" font-size="20px" fill="#d9480f" text-anchor="middle" style="white-space: pre;" direction="ltr">Classes</text></g><g stroke-linecap="round" transform="translate(415.57790677107863 76.82866602594777) rotate(0 66.12236696376152 26.024064106219413)"><path d="M13.01 0 M13.01 0 C45.67 0, 78.34 0, 119.23 0 M13.01 0 C51.4 0, 89.79 0, 119.23 0 M119.23 0 C127.91 0, 132.24 4.34, 132.24 13.01 M119.23 0 C127.91 0, 132.24 4.34, 132.24 13.01 M132.24 13.01 C132.24 19.95, 132.24 26.88, 132.24 39.04 M132.24 13.01 C132.24 19.64, 132.24 26.26, 132.24 39.04 M132.24 39.04 C132.24 47.71, 127.91 52.05, 119.23 52.05 M132.24 39.04 C132.24 47.71, 127.91 52.05, 119.23 52.05 M119.23 52.05 C95.85 52.05, 72.47 52.05, 13.01 52.05 M119.23 52.05 C91.83 52.05, 64.44 52.05, 13.01 52.05 M13.01 52.05 C4.34 52.05, 0 47.71, 0 39.04 M13.01 52.05 C4.34 52.05, 0 47.71, 0 39.04 M0 39.04 C0 32.68, 0 26.33, 0 13.01 M0 39.04 C0 30.66, 0 22.28, 0 13.01 M0 13.01 C0 4.34, 4.34 0, 13.01 0 M0 13.01 C0 4.34, 4.34 0, 13.01 0" stroke="#d9480f" stroke-width="2" fill="none"></path></g><g transform="translate(553.6132694987277 87.27384945491838) rotate(0 128.5 12)"><text x="0" y="17" font-family="Virgil, Segoe UI Emoji" font-size="17.790741061657464px" fill="#000000" text-anchor="start" style="white-space: pre;" direction="ltr">Enregistre dans le programme</text></g><g transform="translate(702.5365902606925 229.25417996408362) rotate(0 62.5 12)"><text x="0" y="17" font-family="Virgil, Segoe UI Emoji" font-size="17.790741061657464px" fill="#000000" text-anchor="start" style="white-space: pre;" direction="ltr">Affiche l'image</text></g><g transform="translate(617.1813039365932 366.8457835401182) rotate(0 104 12)"><text x="0" y="17" font-family="Virgil, Segoe UI Emoji" font-size="17.790741061657464px" fill="#000000" text-anchor="start" style="white-space: pre;" direction="ltr">Rend les objets uniques</text></g><g transform="translate(617.1813039365932 493.8499296195751) rotate(0 188 12)"><text x="0" y="17" font-family="Virgil, Segoe UI Emoji" font-size="17.790741061657464px" fill="#000000" text-anchor="start" style="white-space: pre;" direction="ltr">Prendre des photos toutes les X secondes</text></g><g transform="translate(44.608032204314156 88.509898262664) rotate(0 100.5 12)"><text x="0" y="17" font-family="Virgil, Segoe UI Emoji" font-size="17.790741061657464px" fill="#000000" text-anchor="start" style="white-space: pre;" direction="ltr">Enregistre dans le CSV</text></g><g stroke-linecap="round" transform="translate(10 38.5) rotate(0 507 269.5)"><path d="M32 0 M32 0 C308.81 0, 585.62 0, 982 0 M982 0 C1003.33 0, 1014 10.67, 1014 32 M1014 32 C1014 128.11, 1014 224.23, 1014 507 M1014 507 C1014 528.33, 1003.33 539, 982 539 M982 539 C620.46 539, 258.92 539, 32 539 M32 539 C10.67 539, 0 528.33, 0 507 M0 507 C0 372.21, 0 237.41, 0 32 M0 32 C0 10.67, 10.67 0, 32 0" stroke="#000000" stroke-width="2.5" fill="none" stroke-dasharray="8 10"></path></g><g transform="translate(12 10) rotate(0 75 10.5)"><text x="75" y="15" font-family="Virgil, Segoe UI Emoji" font-size="16px" fill="#000000" text-anchor="middle" style="white-space: pre;" direction="ltr">Programme principal</text></g><g stroke-linecap="round"><g transform="translate(282.30150705253317 507.220745317276) rotate(0 51.643383525865715 -0.7377626217980833)"><path d="M0 0 C17.21 -0.25, 86.07 -1.23, 103.29 -1.48 M0 0 C17.21 -0.25, 86.07 -1.23, 103.29 -1.48" stroke="#000000" stroke-width="2" fill="none"></path></g><g transform="translate(282.30150705253317 507.220745317276) rotate(0 51.643383525865715 -0.7377626217980833)"><path d="M75.25 9.19 C81.78 6.7, 88.31 4.22, 103.29 -1.48 M75.25 9.19 C84.68 5.6, 94.11 2.01, 103.29 -1.48" stroke="#000000" stroke-width="2" fill="none"></path></g><g transform="translate(282.30150705253317 507.220745317276) rotate(0 51.643383525865715 -0.7377626217980833)"><path d="M74.95 -11.33 C81.55 -9.04, 88.15 -6.74, 103.29 -1.48 M74.95 -11.33 C84.48 -8.02, 94.01 -4.7, 103.29 -1.48" stroke="#000000" stroke-width="2" fill="none"></path></g></g><mask></mask><g stroke-linecap="round"><g transform="translate(504.36805621375566 465.16827587478537) rotate(0 -0.36888131089904164 -21.395116032144358)"><path d="M0 0 C-0.12 -7.13, -0.61 -35.66, -0.74 -42.79 M0 0 C-0.12 -7.13, -0.61 -35.66, -0.74 -42.79" stroke="#000000" stroke-width="2" fill="none"></path></g><g transform="translate(504.36805621375566 465.16827587478537) rotate(0 -0.36888131089904164 -21.395116032144358)"><path d="M6.93 -22.81 C4.29 -29.67, 1.66 -36.54, -0.74 -42.79 M6.93 -22.81 C4.83 -28.29, 2.73 -33.76, -0.74 -42.79" stroke="#000000" stroke-width="2" fill="none"></path></g><g transform="translate(504.36805621375566 465.16827587478537) rotate(0 -0.36888131089904164 -21.395116032144358)"><path d="M-7.71 -22.56 C-5.31 -29.51, -2.92 -36.46, -0.74 -42.79 M-7.71 -22.56 C-5.8 -28.1, -3.89 -33.65, -0.74 -42.79" stroke="#000000" stroke-width="2" fill="none"></path></g></g><mask></mask><g stroke-linecap="round"><g transform="translate(472.6442634764382 337.5353423037173) rotate(0 -35.41260584630794 -22.501759964841483)"><path d="M0 0 C-11.8 -7.5, -59.02 -37.5, -70.83 -45 M0 0 C-11.8 -7.5, -59.02 -37.5, -70.83 -45" stroke="#000000" stroke-width="2" fill="none"></path></g><g transform="translate(472.6442634764382 337.5353423037173) rotate(0 -35.41260584630794 -22.501759964841483)"><path d="M-41.53 -38.54 C-51.41 -40.72, -61.3 -42.9, -70.83 -45 M-41.53 -38.54 C-53.22 -41.12, -64.91 -43.7, -70.83 -45" stroke="#000000" stroke-width="2" fill="none"></path></g><g transform="translate(472.6442634764382 337.5353423037173) rotate(0 -35.41260584630794 -22.501759964841483)"><path d="M-52.53 -21.22 C-58.71 -29.25, -64.88 -37.27, -70.83 -45 M-52.53 -21.22 C-59.83 -30.71, -67.13 -40.2, -70.83 -45" stroke="#000000" stroke-width="2" fill="none"></path></g></g><mask></mask><g stroke-linecap="round"><g transform="translate(532.4030358420828 340.48639279090963) rotate(0 29.141623561024176 -23.239522586639566)"><path d="M0 0 C9.71 -7.75, 48.57 -38.73, 58.28 -46.48 M0 0 C9.71 -7.75, 48.57 -38.73, 58.28 -46.48" stroke="#000000" stroke-width="2" fill="none"></path></g><g transform="translate(532.4030358420828 340.48639279090963) rotate(0 29.141623561024176 -23.239522586639566)"><path d="M42.64 -20.88 C47.76 -29.26, 52.89 -37.65, 58.28 -46.48 M42.64 -20.88 C48.28 -30.11, 53.92 -39.34, 58.28 -46.48" stroke="#000000" stroke-width="2" fill="none"></path></g><g transform="translate(532.4030358420828 340.48639279090963) rotate(0 29.141623561024176 -23.239522586639566)"><path d="M29.85 -36.92 C39.16 -40.05, 48.47 -43.18, 58.28 -46.48 M29.85 -36.92 C40.1 -40.37, 50.36 -43.82, 58.28 -46.48" stroke="#000000" stroke-width="2" fill="none"></path></g></g><mask></mask><g stroke-linecap="round"><g transform="translate(424.6896930595629 203.26254513646649) rotate(0 26.1905730738319 -29.879386182822316)"><path d="M0 0 C8.73 -9.96, 43.65 -49.8, 52.38 -59.76 M0 0 C8.73 -9.96, 43.65 -49.8, 52.38 -59.76" stroke="#000000" stroke-width="2" fill="none"></path></g><g transform="translate(424.6896930595629 203.26254513646649) rotate(0 26.1905730738319 -29.879386182822316)"><path d="M41.51 -31.8 C45.03 -40.84, 48.54 -49.88, 52.38 -59.76 M41.51 -31.8 C44.96 -40.67, 48.41 -49.55, 52.38 -59.76" stroke="#000000" stroke-width="2" fill="none"></path></g><g transform="translate(424.6896930595629 203.26254513646649) rotate(0 26.1905730738319 -29.879386182822316)"><path d="M26.08 -45.32 C34.58 -49.99, 43.09 -54.66, 52.38 -59.76 M26.08 -45.32 C34.43 -49.91, 42.78 -54.49, 52.38 -59.76" stroke="#000000" stroke-width="2" fill="none"></path></g></g><mask></mask><g stroke-linecap="round"><g transform="translate(368.6197338029087 202.5247825146684) rotate(0 -23.239522586639566 -32.09267404821655)"><path d="M0 0 C-7.75 -10.7, -38.73 -53.49, -46.48 -64.19 M0 0 C-7.75 -10.7, -38.73 -53.49, -46.48 -64.19" stroke="#000000" stroke-width="2" fill="none"></path></g><g transform="translate(368.6197338029087 202.5247825146684) rotate(0 -23.239522586639566 -32.09267404821655)"><path d="M-21.63 -47.37 C-27.52 -51.35, -33.41 -55.34, -46.48 -64.19 M-21.63 -47.37 C-31.47 -54.03, -41.3 -60.68, -46.48 -64.19" stroke="#000000" stroke-width="2" fill="none"></path></g><g transform="translate(368.6197338029087 202.5247825146684) rotate(0 -23.239522586639566 -32.09267404821655)"><path d="M-38.26 -35.33 C-40.2 -42.17, -42.15 -49.01, -46.48 -64.19 M-38.26 -35.33 C-41.51 -46.75, -44.77 -58.17, -46.48 -64.19" stroke="#000000" stroke-width="2" fill="none"></path></g></g><mask></mask><g transform="translate(48.608032204314156 227.50989826266397) rotate(0 86.5 24)"><text x="0" y="17" font-family="Virgil, Segoe UI Emoji" font-size="17.790741061657464px" fill="#000000" text-anchor="start" style="white-space: pre;" direction="ltr">Enregistre dans une</text><text x="0" y="41" font-family="Virgil, Segoe UI Emoji" font-size="17.790741061657464px" fill="#000000" text-anchor="start" style="white-space: pre;" direction="ltr">base de donnée</text></g><g stroke-linecap="round"><g transform="translate(311.6197338029087 241.5247825146684) rotate(0 -53.739522586639566 -25.592674048216566)"><path d="M0 0 C-17.91 -8.53, -89.57 -42.65, -107.48 -51.19 M0 0 C-17.91 -8.53, -89.57 -42.65, -107.48 -51.19" stroke="#000000" stroke-width="2" fill="none"></path></g><g transform="translate(311.6197338029087 241.5247825146684) rotate(0 -53.739522586639566 -25.592674048216566)"><path d="M-77.62 -48.33 C-87.93 -49.31, -98.24 -50.3, -107.48 -51.19 M-77.62 -48.33 C-87.81 -49.3, -98.01 -50.28, -107.48 -51.19" stroke="#000000" stroke-width="2" fill="none"></path></g><g transform="translate(311.6197338029087 241.5247825146684) rotate(0 -53.739522586639566 -25.592674048216566)"><path d="M-86.44 -29.8 C-93.71 -37.19, -100.97 -44.57, -107.48 -51.19 M-86.44 -29.8 C-93.62 -37.1, -100.81 -44.4, -107.48 -51.19" stroke="#000000" stroke-width="2" fill="none"></path></g></g><mask></mask><g transform="translate(117.4999999999996 179.2200219820469) rotate(0 19.5 13)"><text x="19.5" y="19" font-family="Virgil, Segoe UI Emoji" font-size="20px" fill="#d9480f" text-anchor="middle" style="white-space: pre;" direction="ltr">SQL</text></g><g stroke-linecap="round" transform="translate(70.87763303623848 166.22593589378062) rotate(0 66.12236696376152 26.024064106219413)"><path d="M13.01 0 M13.01 0 C46.84 0, 80.66 0, 119.23 0 M13.01 0 C51.98 0, 90.94 0, 119.23 0 M119.23 0 C127.91 0, 132.24 4.34, 132.24 13.01 M119.23 0 C127.91 0, 132.24 4.34, 132.24 13.01 M132.24 13.01 C132.24 20.8, 132.24 28.58, 132.24 39.04 M132.24 13.01 C132.24 18.57, 132.24 24.14, 132.24 39.04 M132.24 39.04 C132.24 47.71, 127.91 52.05, 119.23 52.05 M132.24 39.04 C132.24 47.71, 127.91 52.05, 119.23 52.05 M119.23 52.05 C95.44 52.05, 71.64 52.05, 13.01 52.05 M119.23 52.05 C78.98 52.05, 38.73 52.05, 13.01 52.05 M13.01 52.05 C4.34 52.05, 0 47.71, 0 39.04 M13.01 52.05 C4.34 52.05, 0 47.71, 0 39.04 M0 39.04 C0 33.75, 0 28.47, 0 13.01 M0 39.04 C0 31.2, 0 23.35, 0 13.01 M0 13.01 C0 4.34, 4.34 0, 13.01 0 M0 13.01 C0 4.34, 4.34 0, 13.01 0" stroke="#d9480f" stroke-width="2" fill="none"></path></g></svg>